<svg width="28" height="28" viewBox="0 0 28 28" fill="none" xmlns="http://www.w3.org/2000/svg">
<path d="M14 12.0915L23.5804 14.4707C25.2481 13.8179 26.25 12.9902 26.25 12.0915V8.26428C26.25 6.15641 20.7638 4.44141 14 4.44141C7.23625 4.44141 1.75 6.15553 1.75 8.26428V12.0924C1.75 14.202 7.23363 15.9153 14 15.9153V12.0915Z" fill="#D33E44"/>
<path d="M23.5795 14.4708L14 12.0908V15.9146L23.5804 18.2946C25.2472 17.6401 26.25 16.8141 26.25 15.9146V12.0908C26.25 12.9903 25.2472 13.8172 23.5795 14.4708ZM1.75 12.0908V15.9146C1.75 18.0242 7.23363 19.7348 14 19.7348V15.9146C7.23363 15.9146 1.75 14.1996 1.75 12.0908Z" fill="white"/>
<path d="M23.5795 18.2946L14 15.9146V19.7383L23.5804 22.1183C25.2472 21.4647 26.25 20.6378 26.25 19.7383V15.9146C26.25 16.8141 25.2472 17.6409 23.5795 18.2946ZM1.75 15.9146V19.7383C1.75 21.8479 7.23363 23.5586 14 23.5586V19.7383C7.23363 19.7383 1.75 18.0251 1.75 15.9146Z" fill="#D33E44"/>
</svg>
