<svg width="33" height="32" viewBox="0 0 33 32" fill="none" xmlns="http://www.w3.org/2000/svg">
<path fill-rule="evenodd" clip-rule="evenodd" d="M16.3453 18.8273L23.4173 25.8927C23.7926 26.2676 24.3016 26.4783 24.8323 26.4783C25.363 26.4783 25.872 26.2676 26.2472 25.8927C26.6225 25.5178 26.8333 25.0093 26.8333 24.4791C26.8333 23.9489 26.6225 23.4404 26.2472 23.0655L19.1725 16.0001L26.2459 8.93473C26.4316 8.74909 26.5789 8.52872 26.6794 8.28621C26.7799 8.04369 26.8316 7.78378 26.8315 7.52131C26.8314 7.25884 26.7796 6.99895 26.679 6.75649C26.5784 6.51402 26.431 6.29372 26.2452 6.10817C26.0594 5.92262 25.8388 5.77545 25.5961 5.67506C25.3533 5.57468 25.0932 5.52304 24.8305 5.5231C24.5678 5.52317 24.3076 5.57492 24.0649 5.67542C23.8222 5.77592 23.6017 5.9232 23.416 6.10884L16.3453 13.1742L9.27321 6.10884C9.08877 5.91787 8.86811 5.76552 8.62411 5.66067C8.3801 5.55581 8.11763 5.50056 7.85203 5.49813C7.58642 5.4957 7.32298 5.54614 7.0771 5.64651C6.83121 5.74688 6.60779 5.89517 6.41988 6.08273C6.23197 6.27029 6.08333 6.49335 5.98263 6.73891C5.88194 6.98447 5.8312 7.24761 5.83338 7.51297C5.83556 7.77833 5.89062 8.0406 5.99534 8.28448C6.10006 8.52835 6.25235 8.74895 6.44332 8.93339L13.518 16.0001L6.44466 23.0668C6.25369 23.2513 6.1014 23.4719 5.99668 23.7158C5.89195 23.9596 5.8369 24.2219 5.83471 24.4873C5.83253 24.7526 5.88327 25.0158 5.98397 25.2613C6.08466 25.5069 6.23331 25.7299 6.42122 25.9175C6.60913 26.1051 6.83254 26.2533 7.07843 26.3537C7.32432 26.4541 7.58775 26.5045 7.85336 26.5021C8.11897 26.4997 8.38143 26.4444 8.62544 26.3396C8.86944 26.2347 9.09011 26.0824 9.27455 25.8914L16.3453 18.8273Z" fill="white"/>
</svg>
