<svg width="28" height="28" viewBox="0 0 28 28" fill="none" xmlns="http://www.w3.org/2000/svg">
<g clip-path="url(#clip0_730_416)">
<path d="M14 1.75C13.6456 1.75 13.2956 1.82656 12.9631 1.97422L0.691252 7.51406C0.275627 7.70547 2.02508e-06 8.19766 2.02508e-06 8.75C2.02508e-06 9.30234 0.275627 9.79453 0.691252 9.98594L3.22438 11.1289C2.50688 12.5398 2.1 14.2078 2.1 15.9633V17.5C2.1 19.0531 1.6275 20.6555 1.12438 21.9188C0.840002 22.6297 0.516252 23.3297 0.140002 23.975C2.02655e-06 24.2102 -0.039373 24.5164 0.039377 24.7953C0.118127 25.0742 0.301877 25.282 0.529377 25.3531L3.32938 26.2281C3.51313 26.2883 3.71 26.2445 3.87188 26.1188C4.03375 25.993 4.1475 25.7852 4.1825 25.55C4.55875 23.2094 4.37063 21.1094 4.09063 19.6055C3.95063 18.8289 3.7625 18.0359 3.5 17.3086V15.9633C3.5 14.3117 3.94625 12.7531 4.72063 11.5063C5.285 10.6586 6.01563 9.975 6.87313 9.55391L13.7419 6.17969C14.1006 6.00469 14.5075 6.22344 14.6475 6.67188C14.7875 7.12031 14.6125 7.62891 14.2538 7.80391L7.385 11.1781C6.8425 11.4461 6.36563 11.8563 5.97625 12.3594L12.9588 15.5094C13.2913 15.657 13.6413 15.7336 13.9956 15.7336C14.35 15.7336 14.7 15.657 15.0325 15.5094L27.3088 9.98594C27.7244 9.8 28 9.30234 28 8.75C28 8.19766 27.7244 7.70547 27.3088 7.51406L15.0369 1.97422C14.7044 1.82656 14.3544 1.75 14 1.75ZM5.6 22.3125C5.6 24.243 9.3625 26.25 14 26.25C18.6375 26.25 22.4 24.243 22.4 22.3125L21.7306 14.3609L15.5094 17.1719C15.0238 17.3906 14.5119 17.5 14 17.5C13.4881 17.5 12.9719 17.3906 12.4906 17.1719L6.26938 14.3609L5.6 22.3125Z" fill="black"/>
</g>
<defs>
<clipPath id="clip0_730_416">
<rect width="28" height="28" fill="white"/>
</clipPath>
</defs>
</svg>
