<svg width="28" height="28" viewBox="0 0 28 28" fill="none" xmlns="http://www.w3.org/2000/svg">
<path d="M19.8333 18.0835V19.8335C19.8333 20.5335 19.3667 21.0002 18.6667 21.0002C17.9667 21.0002 17.5 20.5335 17.5 19.8335V18.0835H10.5V19.8335C10.5 20.5335 10.0333 21.0002 9.33334 21.0002C8.63334 21.0002 8.16667 20.5335 8.16667 19.8335V18.0835H5.83334C5.01667 18.0835 4.2 17.8502 3.5 17.5002V22.1668C3.5 24.1502 5.01667 25.6668 7 25.6668H21C22.9833 25.6668 24.5 24.1502 24.5 22.1668V17.5002C23.8 17.8502 22.9833 18.0835 22.1667 18.0835H19.8333ZM24.5 7.00016H19.8333V5.8335C19.8333 3.85016 18.3167 2.3335 16.3333 2.3335H11.6667C9.68334 2.3335 8.16667 3.85016 8.16667 5.8335V7.00016H3.5C2.8 7.00016 2.33334 7.46683 2.33334 8.16683V12.8335C2.33334 14.8168 3.85 16.3335 5.83334 16.3335H22.1667C24.15 16.3335 25.6667 14.8168 25.6667 12.8335V8.16683C25.6667 7.46683 25.2 7.00016 24.5 7.00016ZM17.5 7.00016H10.5V5.8335C10.5 5.1335 10.9667 4.66683 11.6667 4.66683H16.3333C17.0333 4.66683 17.5 5.1335 17.5 5.8335V7.00016Z" fill="black"/>
</svg>
