<svg width="28" height="28" viewBox="0 0 28 28" fill="none" xmlns="http://www.w3.org/2000/svg">
<path fill-rule="evenodd" clip-rule="evenodd" d="M8.75025 10.9815C9.2144 10.9815 9.65953 10.7824 9.98773 10.428C10.3159 10.0736 10.5003 9.59296 10.5003 9.09175C10.5003 8.59055 10.3159 8.10987 9.98773 7.75547C9.65953 7.40106 9.2144 7.20196 8.75025 7.20196C8.28611 7.20196 7.84098 7.40106 7.51278 7.75547C7.18458 8.10987 7.0002 8.59055 7.0002 9.09175C7.0002 9.59296 7.18458 10.0736 7.51278 10.428C7.84098 10.7824 8.28611 10.9815 8.75025 10.9815ZM8.75025 17.0275C8.98457 17.0352 9.21794 16.992 9.43652 16.9005C9.6551 16.8091 9.85445 16.6711 10.0227 16.4948C10.191 16.3186 10.3248 16.1077 10.4162 15.8745C10.5075 15.6414 10.5546 15.3908 10.5546 15.1377C10.5546 14.8845 10.5075 14.634 10.4162 14.4008C10.3248 14.1677 10.191 13.9568 10.0227 13.7805C9.85445 13.6043 9.6551 13.4663 9.43652 13.3748C9.21794 13.2833 8.98457 13.2402 8.75025 13.2479C8.29537 13.2629 7.86376 13.4686 7.54691 13.8213C7.23006 14.1741 7.05286 14.6462 7.05286 15.1377C7.05286 15.6291 7.23006 16.1012 7.54691 16.454C7.86376 16.8068 8.29537 17.0125 8.75025 17.0275ZM20.9998 15.1386C20.9998 15.6398 20.8154 16.1204 20.4872 16.4748C20.159 16.8292 19.7139 17.0283 19.2497 17.0283C18.7856 17.0283 18.3405 16.8292 18.0123 16.4748C17.6841 16.1204 17.4997 15.6398 17.4997 15.1386C17.4997 14.6374 17.6841 14.1567 18.0123 13.8023C18.3405 13.4479 18.7856 13.2488 19.2497 13.2488C19.7139 13.2488 20.159 13.4479 20.4872 13.8023C20.8154 14.1567 20.9998 14.6374 20.9998 15.1386ZM5.95083 14.0045C6.18514 14.0122 6.41851 13.9691 6.6371 13.8776C6.85568 13.7861 7.05502 13.6481 7.2233 13.4719C7.39157 13.2956 7.52536 13.0847 7.61672 12.8516C7.70809 12.6184 7.75516 12.3679 7.75516 12.1147C7.75516 11.8616 7.70809 11.611 7.61672 11.3779C7.52536 11.1447 7.39157 10.9338 7.2233 10.7575C7.05502 10.5813 6.85568 10.4433 6.6371 10.3518C6.41851 10.2604 6.18514 10.2172 5.95083 10.2249C5.49594 10.2399 5.06434 10.4456 4.74748 10.7984C4.43063 11.1511 4.25343 11.6233 4.25343 12.1147C4.25343 12.6062 4.43063 13.0783 4.74748 13.431C5.06434 13.7838 5.49594 13.9895 5.95083 14.0045ZM18.2004 12.1138C18.2004 12.6153 18.0159 13.0962 17.6875 13.4507C17.3592 13.8053 16.9139 14.0045 16.4495 14.0045C15.9851 14.0045 15.5398 13.8053 15.2114 13.4507C14.8831 13.0962 14.6986 12.6153 14.6986 12.1138C14.6986 11.6124 14.8831 11.1315 15.2114 10.7769C15.5398 10.4224 15.9851 10.2232 16.4495 10.2232C16.9139 10.2232 17.3592 10.4224 17.6875 10.7769C18.0159 11.1315 18.2004 11.6124 18.2004 12.1138ZM11.5497 14.0045C12.014 14.0045 12.4594 13.8053 12.7877 13.4507C13.1161 13.0962 13.3005 12.6153 13.3005 12.1138C13.3005 11.6124 13.1161 11.1315 12.7877 10.7769C12.4594 10.4224 12.014 10.2232 11.5497 10.2232C11.0853 10.2232 10.64 10.4224 10.3116 10.7769C9.98328 11.1315 9.79882 11.6124 9.79882 12.1138C9.79882 12.6153 9.98328 13.0962 10.3116 13.4507C10.64 13.8053 11.0853 14.0045 11.5497 14.0045ZM23.7992 12.1121C23.7992 12.6133 23.6148 13.0939 23.2866 13.4484C22.9584 13.8028 22.5133 14.0019 22.0492 14.0019C21.585 14.0019 21.1399 13.8028 20.8117 13.4484C20.4835 13.0939 20.2991 12.6133 20.2991 12.1121C20.2991 11.6109 20.4835 11.1302 20.8117 10.7758C21.1399 10.4214 21.585 10.2223 22.0492 10.2223C22.5133 10.2223 22.9584 10.4214 23.2866 10.7758C23.6148 11.1302 23.7992 11.6109 23.7992 12.1121ZM19.2489 10.978C19.4786 10.978 19.7061 10.9292 19.9183 10.8342C20.1306 10.7393 20.3234 10.6002 20.4858 10.4248C20.6483 10.2494 20.7771 10.0411 20.865 9.81196C20.9529 9.58279 20.9982 9.33716 20.9982 9.08911C20.9982 8.84105 20.9529 8.59542 20.865 8.36625C20.7771 8.13708 20.6483 7.92885 20.4858 7.75344C20.3234 7.57804 20.1306 7.43891 19.9183 7.34398C19.7061 7.24905 19.4786 7.2002 19.2489 7.2002C18.7848 7.2002 18.3397 7.3993 18.0115 7.7537C17.6833 8.10811 17.4989 8.58878 17.4989 9.08999C17.4989 9.59119 17.6833 10.0719 18.0115 10.4263C18.3397 10.7807 18.7848 10.9798 19.2489 10.9798M15.3993 15.516C15.4057 15.7187 15.3743 15.9207 15.3069 16.1101C15.2395 16.2994 15.1374 16.4721 15.0069 16.618C14.8764 16.7638 14.72 16.8798 14.5471 16.959C14.3742 17.0383 14.1882 17.0791 14.0004 17.0791C13.8126 17.0791 13.6267 17.0383 13.4537 16.959C13.2808 16.8798 13.1244 16.7638 12.9939 16.618C12.8634 16.4721 12.7614 16.2994 12.6939 16.1101C12.6265 15.9207 12.5951 15.7187 12.6015 15.516C12.6139 15.1243 12.7667 14.7531 13.0277 14.4807C13.2887 14.2084 13.6375 14.0561 14.0004 14.0561C14.3634 14.0561 14.7121 14.2084 14.9731 14.4807C15.2341 14.7531 15.3869 15.1243 15.3993 15.516ZM11.2002 20.0504C11.3879 20.0574 11.575 20.0234 11.7503 19.9506C11.9256 19.8778 12.0856 19.7677 12.2207 19.6267C12.3557 19.4858 12.4632 19.3169 12.5365 19.1302C12.6099 18.9434 12.6477 18.7427 12.6477 18.5398C12.6477 18.337 12.6099 18.1362 12.5365 17.9495C12.4632 17.7628 12.3557 17.5939 12.2207 17.453C12.0856 17.312 11.9256 17.2018 11.7503 17.129C11.575 17.0562 11.3879 17.0223 11.2002 17.0292C10.8374 17.0426 10.4937 17.2076 10.2415 17.4895C9.98924 17.7713 9.84825 18.1479 9.84825 18.5398C9.84825 18.9318 9.98924 19.3084 10.2415 19.5902C10.4937 19.872 10.8374 20.037 11.2002 20.0504ZM25.8996 15.516C25.8996 15.7145 25.8634 15.911 25.7931 16.0944C25.7227 16.2778 25.6196 16.4444 25.4896 16.5848C25.3597 16.7251 25.2054 16.8365 25.0355 16.9124C24.8657 16.9884 24.6837 17.0275 24.4999 17.0275C24.3161 17.0275 24.1341 16.9884 23.9642 16.9124C23.7944 16.8365 23.6401 16.7251 23.5101 16.5848C23.3802 16.4444 23.2771 16.2778 23.2067 16.0944C23.1364 15.911 23.1002 15.7145 23.1002 15.516C23.1002 15.1151 23.2477 14.7307 23.5101 14.4472C23.7726 14.1638 24.1287 14.0045 24.4999 14.0045C24.8711 14.0045 25.2271 14.1638 25.4896 14.4472C25.7521 14.7307 25.8996 15.1151 25.8996 15.516ZM22.3995 20.0504C22.7707 20.0504 23.1268 19.8912 23.3893 19.6077C23.6518 19.3243 23.7992 18.9398 23.7992 18.5389C23.7992 18.1381 23.6518 17.7536 23.3893 17.4702C23.1268 17.1867 22.7707 17.0275 22.3995 17.0275C22.0283 17.0275 21.6723 17.1867 21.4098 17.4702C21.1473 17.7536 20.9998 18.1381 20.9998 18.5389C20.9998 18.9398 21.1473 19.3243 21.4098 19.6077C21.6723 19.8912 22.0283 20.0504 22.3995 20.0504ZM4.90063 15.516C4.90063 15.9169 4.75316 16.3013 4.49067 16.5848C4.22817 16.8682 3.87215 17.0275 3.50092 17.0275C3.12969 17.0275 2.77367 16.8682 2.51117 16.5848C2.24867 16.3013 2.1012 15.9169 2.1012 15.516C2.1012 15.1151 2.24867 14.7307 2.51117 14.4472C2.77367 14.1638 3.12969 14.0045 3.50092 14.0045C3.87215 14.0045 4.22817 14.1638 4.49067 14.4472C4.75316 14.7307 4.90063 15.1151 4.90063 15.516ZM0.699857 18.5389C0.885471 18.5389 1.06348 18.4593 1.19473 18.3176C1.32598 18.1759 1.39971 17.9836 1.39971 17.7832C1.39971 17.5828 1.32598 17.3905 1.19473 17.2488C1.06348 17.1071 0.885471 17.0275 0.699857 17.0275C0.514244 17.0275 0.336232 17.1071 0.204983 17.2488C0.0737347 17.3905 0 17.5828 0 17.7832C0 17.9836 0.0737347 18.1759 0.204983 18.3176C0.336232 18.4593 0.514244 18.5389 0.699857 18.5389ZM4.19996 20.8071C4.20454 20.9094 4.18983 21.0116 4.15672 21.1076C4.12362 21.2036 4.07281 21.2914 4.00737 21.3655C3.94193 21.4397 3.86323 21.4987 3.77603 21.5391C3.68884 21.5794 3.59496 21.6002 3.5001 21.6002C3.40524 21.6002 3.31137 21.5794 3.22417 21.5391C3.13698 21.4987 3.05827 21.4397 2.99283 21.3655C2.9274 21.2914 2.87659 21.2036 2.84348 21.1076C2.81038 21.0116 2.79567 20.9094 2.80025 20.8071C2.80893 20.6129 2.88646 20.4299 3.01676 20.2958C3.14705 20.1617 3.32013 20.0869 3.5001 20.0869C3.68008 20.0869 3.85315 20.1617 3.98345 20.2958C4.11374 20.4299 4.19127 20.6129 4.19996 20.8071ZM13.9996 21.5619C14.0943 21.5669 14.189 21.551 14.2779 21.5152C14.3668 21.4795 14.4481 21.4246 14.5168 21.3539C14.5854 21.2833 14.6401 21.1983 14.6775 21.1041C14.7148 21.01 14.7341 20.9086 14.7341 20.8062C14.7341 20.7037 14.7148 20.6024 14.6775 20.5082C14.6401 20.414 14.5854 20.3291 14.5168 20.2584C14.4481 20.1877 14.3668 20.1329 14.2779 20.0971C14.189 20.0614 14.0943 20.0455 13.9996 20.0504C13.8198 20.0598 13.6503 20.1435 13.5261 20.2842C13.402 20.4249 13.3327 20.6118 13.3327 20.8062C13.3327 21.0005 13.402 21.1874 13.5261 21.3281C13.6503 21.4688 13.8198 21.5525 13.9996 21.5619ZM25.1989 20.8071C25.2035 20.9094 25.1888 21.0116 25.1557 21.1076C25.1226 21.2036 25.0718 21.2914 25.0063 21.3655C24.9409 21.4397 24.8622 21.4987 24.775 21.5391C24.6878 21.5794 24.5939 21.6002 24.4991 21.6002C24.4042 21.6002 24.3103 21.5794 24.2231 21.5391C24.136 21.4987 24.0572 21.4397 23.9918 21.3655C23.9264 21.2914 23.8756 21.2036 23.8425 21.1076C23.8094 21.0116 23.7946 20.9094 23.7992 20.8071C23.7992 20.6064 23.873 20.4139 24.0044 20.272C24.1358 20.1301 24.3141 20.0504 24.4999 20.0504C24.6857 20.0504 24.8639 20.1301 24.9953 20.272C25.1267 20.4139 25.1989 20.6064 25.1989 20.8071ZM27.301 18.5389C27.4864 18.5389 27.6642 18.4594 27.7953 18.3179C27.9263 18.1763 28 17.9843 28 17.7841C28 17.5839 27.9263 17.3919 27.7953 17.2503C27.6642 17.1088 27.4864 17.0292 27.301 17.0292C27.1156 17.0292 26.9378 17.1088 26.8067 17.2503C26.6756 17.3919 26.6019 17.5839 26.6019 17.7841C26.6019 17.9843 26.6756 18.1763 26.8067 18.3179C26.9378 18.4594 27.1156 18.5389 27.301 18.5389ZM7.35217 18.5389C7.35217 18.9401 7.20462 19.3247 6.94197 19.6084C6.67932 19.892 6.32309 20.0513 5.95164 20.0513C5.5802 20.0513 5.22397 19.892 4.96132 19.6084C4.69867 19.3247 4.55111 18.9401 4.55111 18.5389C4.55111 18.1378 4.69867 17.7532 4.96132 17.4695C5.22397 17.1859 5.5802 17.0266 5.95164 17.0266C6.32309 17.0266 6.67932 17.1859 6.94197 17.4695C7.20462 17.7532 7.35217 18.1378 7.35217 18.5389ZM16.4511 20.0504C16.6389 20.0574 16.826 20.0234 17.0013 19.9506C17.1766 19.8778 17.3366 19.7677 17.4716 19.6267C17.6067 19.4858 17.7141 19.3169 17.7875 19.1302C17.8608 18.9434 17.8987 18.7427 17.8987 18.5398C17.8987 18.337 17.8608 18.1362 17.7875 17.9495C17.7141 17.7628 17.6067 17.5939 17.4716 17.453C17.3366 17.312 17.1766 17.2018 17.0013 17.129C16.826 17.0562 16.6389 17.0223 16.4511 17.0292C16.0884 17.0426 15.7447 17.2076 15.4924 17.4895C15.2402 17.7713 15.0992 18.1479 15.0992 18.5398C15.0992 18.9318 15.2402 19.3084 15.4924 19.5902C15.7447 19.872 16.0884 20.037 16.4511 20.0504Z" fill="#4285F4"/>
</svg>
