<svg width="28" height="28" viewBox="0 0 28 28" fill="none" xmlns="http://www.w3.org/2000/svg">
<path fill-rule="evenodd" clip-rule="evenodd" d="M5.97276 5.98675C5.95298 5.78258 5.97615 5.57652 6.04078 5.38184C6.10541 5.18715 6.21008 5.00815 6.34804 4.85635C6.486 4.70454 6.65421 4.58329 6.84184 4.50039C7.02947 4.41749 7.23238 4.37478 7.43751 4.375C7.78561 4.375 8.11945 4.23672 8.36559 3.99058C8.61173 3.74444 8.75001 3.4106 8.75001 3.0625C8.75001 2.7144 8.61173 2.38056 8.36559 2.13442C8.11945 1.88828 7.78561 1.75 7.43751 1.75C6.86675 1.74984 6.30225 1.869 5.78025 2.09983C5.25824 2.33067 4.79026 2.66807 4.40632 3.09041C4.02238 3.51274 3.73097 4.01067 3.55078 4.55224C3.3706 5.09382 3.30562 5.66708 3.36001 6.23525L3.70826 9.90325C3.74341 10.2779 3.64326 10.6528 3.42594 10.96C3.20862 11.2672 2.88849 11.4864 2.52351 11.578L2.28026 11.6393C1.75317 11.7702 1.28507 12.0737 0.950513 12.5016C0.615959 12.9294 0.434204 13.4569 0.434204 14C0.434204 14.5431 0.615959 15.0706 0.950513 15.4984C1.28507 15.9263 1.75317 16.2298 2.28026 16.3608L2.52526 16.422C2.88992 16.5139 3.20964 16.7333 3.42661 17.0405C3.64359 17.3477 3.74349 17.7223 3.70826 18.0968L3.35826 21.7648C3.30385 22.3331 3.36888 22.9065 3.54917 23.4482C3.72946 23.9899 4.02103 24.4879 4.40516 24.9102C4.78928 25.3326 5.25748 25.67 5.7797 25.9007C6.30191 26.1314 6.8666 26.2504 7.43751 26.25C7.78561 26.25 8.11945 26.1117 8.36559 25.8656C8.61173 25.6194 8.75001 25.2856 8.75001 24.9375C8.75001 24.5894 8.61173 24.2556 8.36559 24.0094C8.11945 23.7633 7.78561 23.625 7.43751 23.625C7.23238 23.6252 7.02947 23.5825 6.84184 23.4996C6.65421 23.4167 6.486 23.2955 6.34804 23.1437C6.21008 22.9918 6.10541 22.8128 6.04078 22.6182C5.97615 22.4235 5.95298 22.2174 5.97276 22.0133L6.32276 18.3453C6.41048 17.4183 6.18768 16.4885 5.6894 15.7019C5.19112 14.9154 4.44559 14.3167 3.57001 14C4.44494 13.6827 5.18969 13.0838 5.68731 12.2973C6.18492 11.5108 6.40721 10.5813 6.31926 9.65475L5.96926 5.98675H5.97276ZM22.029 22.0133C22.0488 22.2176 22.0256 22.4238 21.9609 22.6186C21.8961 22.8134 21.7913 22.9925 21.6531 23.1443C21.515 23.2961 21.3466 23.4174 21.1587 23.5001C20.9709 23.5829 20.7678 23.6255 20.5625 23.625C20.2144 23.625 19.8806 23.7633 19.6344 24.0094C19.3883 24.2556 19.25 24.5894 19.25 24.9375C19.25 25.2856 19.3883 25.6194 19.6344 25.8656C19.8806 26.1117 20.2144 26.25 20.5625 26.25C21.1333 26.2502 21.6978 26.131 22.2198 25.9002C22.7418 25.6693 23.2098 25.3319 23.5937 24.9096C23.9776 24.4873 24.2691 23.9893 24.4492 23.4478C24.6294 22.9062 24.6944 22.3329 24.64 21.7648L24.2918 18.0968C24.2566 17.7221 24.3568 17.3472 24.5741 17.04C24.7914 16.7328 25.1115 16.5136 25.4765 16.422L25.7198 16.3608C26.2468 16.2298 26.715 15.9263 27.0495 15.4984C27.3841 15.0706 27.5658 14.5431 27.5658 14C27.5658 13.4569 27.3841 12.9294 27.0495 12.5016C26.715 12.0737 26.2468 11.7702 25.7198 11.6393L25.4748 11.578C25.1101 11.4861 24.7904 11.2667 24.5734 10.9595C24.3564 10.6523 24.2565 10.2777 24.2918 9.90325L24.6418 6.23525C24.6962 5.66694 24.6311 5.09353 24.4508 4.55183C24.2706 4.01013 23.979 3.51212 23.5949 3.08976C23.2107 2.6674 22.7425 2.33003 22.2203 2.0993C21.6981 1.86858 21.1334 1.7496 20.5625 1.75C20.2144 1.75 19.8806 1.88828 19.6344 2.13442C19.3883 2.38056 19.25 2.7144 19.25 3.0625C19.25 3.4106 19.3883 3.74444 19.6344 3.99058C19.8806 4.23672 20.2144 4.375 20.5625 4.375C21.4305 4.375 22.1095 5.12225 22.029 5.98675L21.679 9.65475C21.5911 10.5813 21.8133 11.5108 22.311 12.2973C22.8086 13.0838 23.5533 13.6827 24.4283 14C23.5533 14.3173 22.8086 14.9162 22.311 15.7027C21.8133 16.4892 21.5911 17.4187 21.679 18.3453L22.029 22.0133Z" fill="black"/>
</svg>
