<svg width="36" height="35" viewBox="0 0 36 35" fill="none" xmlns="http://www.w3.org/2000/svg">
<path d="M17.258 3.7032C17.097 3.7732 16.677 4.0882 16.327 4.4032C15.97 4.7112 15.606 4.9912 15.508 5.0122C15.417 5.0332 14.969 4.9842 14.521 4.9002C13.989 4.8022 13.562 4.7602 13.331 4.7812C12.596 4.8582 12.134 5.2992 11.833 6.2162C11.476 7.3152 11.42 7.4132 11.154 7.5532C11.014 7.6232 10.657 7.7492 10.37 7.8402C9.712 8.0362 9.397 8.1972 9.117 8.4772C8.655 8.9392 8.585 9.4782 8.837 10.6962C8.921 11.0882 8.963 11.4872 8.942 11.5782C8.921 11.6622 8.669 12.0052 8.375 12.3272C7.71 13.0692 7.5 13.4752 7.5 13.9932C7.5 14.5392 7.724 14.9662 8.368 15.6802C8.69 16.0442 8.914 16.3592 8.942 16.4852C8.963 16.5972 8.914 16.9892 8.837 17.3392C8.459 19.0262 8.788 19.6702 10.279 20.1602C10.657 20.2862 11.056 20.4332 11.161 20.4892C11.609 20.7132 11.672 20.4962 9.502 25.7742C8.186 28.9732 7.5 30.7162 7.5 30.8772C7.5 31.1922 7.738 31.4302 8.046 31.4302C8.193 31.4302 9.012 31.0592 10.468 30.3312L12.673 29.2322L14.318 30.3312C16.047 31.4792 16.236 31.5632 16.572 31.3322C16.663 31.2622 16.922 30.6602 17.342 29.5472C17.685 28.6232 17.979 27.8602 18 27.8602C18.021 27.8602 18.28 28.5952 18.581 29.4912C18.952 30.6182 19.176 31.1782 19.281 31.2762C19.617 31.5912 19.792 31.5212 21.57 30.3382L23.208 29.2392L25.399 30.3382C26.904 31.0872 27.66 31.4302 27.821 31.4302C28.087 31.4302 28.339 31.2342 28.402 30.9682C28.437 30.8352 27.954 29.5892 26.4 25.8302C24.195 20.4682 24.272 20.7062 24.706 20.4822C24.811 20.4332 25.133 20.3142 25.42 20.2302C26.358 19.9502 26.911 19.5722 27.1 19.0752C27.226 18.7532 27.205 18.1022 27.037 17.3112C26.925 16.7792 26.911 16.5552 26.96 16.4152C27.002 16.3102 27.268 15.9602 27.555 15.6382C28.227 14.8822 28.381 14.5812 28.381 14.0352C28.381 13.4892 28.178 13.0902 27.52 12.3552C27.24 12.0472 26.988 11.7252 26.953 11.6342C26.911 11.5222 26.939 11.2422 27.037 10.7592C27.422 8.9042 27.135 8.3792 25.413 7.8052C24.895 7.6302 24.608 7.4972 24.517 7.3852C24.447 7.2872 24.272 6.8812 24.132 6.4752C23.992 6.0622 23.796 5.6072 23.705 5.4532C23.285 4.7952 22.655 4.6482 21.346 4.9002C20.905 4.9912 20.464 5.0402 20.373 5.0192C20.282 4.9982 19.939 4.7392 19.61 4.4452C19.281 4.1512 18.861 3.8362 18.672 3.7452C18.238 3.5282 17.678 3.5142 17.258 3.7032ZM18.252 4.9142C18.364 4.9982 18.658 5.2572 18.91 5.4812C19.757 6.2582 20.303 6.3772 21.668 6.0902C22.046 6.0062 22.417 5.9642 22.487 5.9852C22.655 6.0412 22.837 6.3912 23.04 7.0702C23.39 8.2392 23.705 8.5472 25.035 8.9742C25.385 9.0862 25.735 9.2262 25.826 9.2822C26.022 9.4082 26.022 9.6392 25.833 10.5002C25.651 11.3332 25.679 11.9072 25.931 12.3342C26.029 12.5022 26.33 12.8872 26.603 13.1952C27.338 14.0142 27.338 14.0352 26.54 14.9312C25.693 15.8762 25.574 16.3102 25.833 17.5282C26.085 18.7112 26.085 18.7112 25 19.0752C23.677 19.5232 23.446 19.7542 23.005 21.0702C22.865 21.4832 22.697 21.8752 22.62 21.9452C22.466 22.0852 22.284 22.0712 21.206 21.8752C20.786 21.8052 20.401 21.7702 20.212 21.7982C19.841 21.8542 19.365 22.1482 18.658 22.7642C18.28 23.1002 18.063 23.2402 17.93 23.2402C17.79 23.2402 17.58 23.0932 17.153 22.7082C16.131 21.7912 15.669 21.6512 14.472 21.9032C13.569 22.0922 13.345 22.0922 13.212 21.8962C13.149 21.8122 12.988 21.3992 12.848 20.9792C12.442 19.7612 12.127 19.4602 10.783 19.0472C10.412 18.9282 10.055 18.7672 9.985 18.6902C9.852 18.5502 9.859 18.5292 10.006 17.7522C10.3 16.2402 10.216 15.8902 9.285 14.8472C8.991 14.5252 8.739 14.1822 8.718 14.0982C8.669 13.9092 8.809 13.6922 9.439 12.9992C9.677 12.7332 9.929 12.3972 9.992 12.2572C10.188 11.8582 10.195 11.1792 10.02 10.3602C9.789 9.3102 9.768 9.3452 10.986 8.9252C12.197 8.5052 12.449 8.2602 12.827 7.1192C13.107 6.2792 13.226 6.0342 13.38 5.9852C13.443 5.9642 13.828 6.0132 14.227 6.0902C15.186 6.2722 15.767 6.2722 16.152 6.0832C16.32 6.0062 16.684 5.7332 16.964 5.4812C17.489 5.0122 17.832 4.7602 17.972 4.7602C18.014 4.7602 18.14 4.8302 18.252 4.9142Z" fill="#151515"/>
<path d="M17.265 7.07045C14.304 7.32245 11.742 9.60445 11.098 12.5655C10.958 13.2375 10.937 14.6795 11.063 15.2955C11.63 18.0325 13.576 20.1045 16.236 20.7975C16.943 20.9795 18.161 21.0425 18.917 20.9375C21.752 20.5175 23.964 18.5295 24.734 15.6945C24.853 15.2605 24.881 14.9385 24.888 14.0705C24.895 12.7545 24.755 12.0965 24.237 11.0255C22.949 8.33045 20.275 6.81845 17.265 7.07045Z" fill="#151515"/>
</svg>
