<svg width="50" height="50" viewBox="0 0 50 50" fill="none" xmlns="http://www.w3.org/2000/svg">
<path d="M20.778 8.60156H11.4311C9.56841 8.60156 8.03831 10.2311 8.03831 12.2502C7.97179 14.1985 9.43536 15.828 11.2648 15.8989H20.8778L20.778 8.60156Z" fill="#073042"/>
<path d="M41.9672 41.0498H11.4319C9.53589 41.0498 8.03906 39.4203 8.03906 37.4012V12.2148C8.03906 14.234 9.56916 15.8635 11.4319 15.8989H37.011C37.011 15.8989 42.0005 15.4384 42.0005 19.4413V41.0498H41.9672Z" fill="#4285F4"/>
<path d="M27.7305 28.1551C29.0943 27.057 29.3604 25.0024 28.3293 23.5855C27.7638 22.8061 26.899 22.3102 25.9676 22.2748H26.0674C26.2337 22.2394 26.4333 22.2394 26.5996 22.2748V20.2556C26.5996 20.0077 26.4998 19.7951 26.3002 19.6888C26.0009 19.5117 25.635 19.618 25.4687 19.9368C25.4021 20.0431 25.3689 20.1493 25.4021 20.291V22.3456C23.739 22.629 22.5748 24.2939 22.8409 26.1006V26.136C22.9739 26.9861 23.4064 27.7655 24.0716 28.2614L18.4502 41.0848H22.1091L24.7036 35.2045C25.003 34.496 25.8013 34.1772 26.4998 34.5314C26.7659 34.6731 26.9988 34.9211 27.1318 35.2045L29.8261 41.0848H33.5515L27.7305 28.1551ZM25.8346 27.5884C24.7701 27.5884 23.9386 26.6673 23.9386 25.5338C23.9386 24.4002 24.8034 23.5146 25.8678 23.55C26.3668 23.55 26.7992 23.7626 27.1651 24.1168C27.9301 24.8961 27.9301 26.1714 27.1983 26.9861C26.8657 27.3404 26.3668 27.5884 25.8346 27.5884Z" fill="#3870B2"/>
<path d="M18.749 10.3711H31.8546V12.9216H18.749V10.3711Z" fill="white"/>
<path d="M24.836 23.5149C25.8672 23.5149 26.732 24.4359 26.6988 25.5695C26.6988 26.6676 25.8339 27.5886 24.7695 27.5532C23.7384 27.5532 22.9068 26.6322 22.9068 25.534C22.9068 25.0027 23.1064 24.5067 23.4723 24.1171C23.8382 23.7274 24.3371 23.5149 24.836 23.5149ZM25.5678 22.3459V20.2205C25.5678 19.9725 25.468 19.76 25.2685 19.6537C24.9691 19.4766 24.6032 19.5828 24.4369 19.9016C24.3704 20.0079 24.3371 20.1142 24.3704 20.2559V22.3105C22.7072 22.5939 21.543 24.2588 21.8091 26.0654V26.1008C21.9422 26.951 22.3746 27.7303 23.0399 28.2262L15.9549 44.4149C15.6888 44.9817 15.722 45.6902 16.0879 46.2215C16.6201 47.0363 17.6513 47.2488 18.4163 46.6821C18.6824 46.5049 18.882 46.2215 19.015 45.9382L23.7384 35.1693C24.0377 34.4608 24.836 34.142 25.5346 34.4963C25.8007 34.638 26.0335 34.8859 26.1666 35.1693L30.9897 45.8319C31.3888 46.7175 32.3867 47.0717 33.2183 46.6466C34.0499 46.2215 34.3825 45.1588 33.9833 44.2732L26.6988 28.1554C28.0293 27.0218 28.2621 24.9318 27.1977 23.5149C26.7986 22.9481 26.2331 22.5584 25.5678 22.3459Z" fill="#073042"/>
<path d="M29.9255 12.6389C29.4265 12.6389 29.0274 12.2493 29.0274 11.7179C29.0274 11.4699 29.1272 11.1865 29.2935 11.0094C29.6594 10.6552 30.1916 10.6552 30.5575 11.0094C30.7238 11.1865 30.8236 11.4345 30.8236 11.6825C30.7903 12.2138 30.4244 12.6035 29.9255 12.6389ZM20.0797 12.6035C19.5807 12.6035 19.1816 12.1784 19.1816 11.6825C19.1816 11.4345 19.2814 11.1865 19.4477 11.0094C19.747 10.6198 20.3125 10.5489 20.6784 10.8677H20.7117C21.0776 11.222 21.1108 11.8242 20.7782 12.2138L20.6784 12.3555C20.5121 12.5326 20.2793 12.6389 20.0464 12.6389M30.1916 6.90026L31.9545 3.64127C32.0543 3.46415 31.9878 3.25161 31.8547 3.10991C31.6884 3.03906 31.5221 3.07449 31.4223 3.21618L29.5929 6.58144C26.6657 5.19992 23.3394 5.19992 20.4456 6.58144L18.6494 3.25161C18.5828 3.14533 18.4498 3.03906 18.3167 3.03906C18.1837 3.03906 18.0506 3.10991 17.9841 3.25161C17.9176 3.35788 17.9176 3.535 17.9841 3.64127L19.7803 6.90026C16.6536 8.70687 14.6246 12.1076 14.3252 15.8625H35.68C35.4139 12.0721 33.3516 8.70687 30.2249 6.90026" fill="#3DDC84"/>
<path d="M41.25 22.6953H39.6094C39.5313 22.7344 39.4531 22.8125 39.4531 22.9297V48.9062C39.4531 49.0234 39.5312 49.1016 39.6484 49.1016H41.3672C43.3594 49.1016 44.9609 47.4609 44.9609 45.5078V19.0625C44.9609 21.0547 43.3594 22.6563 41.3672 22.6563H41.25V22.6953Z" fill="#073042"/>
</svg>
