<svg width="50" height="50" viewBox="0 0 50 50" fill="none" xmlns="http://www.w3.org/2000/svg">
<path d="M9.53389 41.9012L6.18652 5H42.9696L39.6189 41.8956L24.5558 46L9.53389 41.9012Z" fill="#1572B6"/>
<path d="M25.085 43.9048L37.592 40.4968L40.5344 8.09961H25.085V43.9048Z" fill="#33A9DC"/>
<path d="M25.085 21.8402H31.3462L31.7786 17.0781H25.085V12.4277H36.9498L36.8363 13.6755L35.6731 26.4906H25.085V21.8402Z" fill="white"/>
<path d="M25.1127 33.9138L25.0918 33.9198L19.8224 32.5215L19.4854 28.8125H14.7363L15.399 36.1144L25.0912 38.7582L25.1127 38.7522V33.9138Z" fill="#EBEBEB"/>
<path d="M30.9439 26.291L30.374 32.5187L25.0967 33.9187V38.7571L34.7967 36.115L34.8679 35.3292L35.691 26.291H30.9439Z" fill="white"/>
<path d="M25.1006 12.4277V17.0781H13.6716L13.5768 16.0331L13.3613 13.6755L13.248 12.4277H25.1006ZM25.0845 21.8408V26.4913H19.8815L19.7867 25.4463L19.5708 23.0886L19.4579 21.8408H25.0845Z" fill="#EBEBEB"/>
</svg>
