<svg width="50" height="50" viewBox="0 0 50 50" fill="none" xmlns="http://www.w3.org/2000/svg">
<path d="M19.237 46.0002C23.0753 46.0002 26.1719 42.9037 26.1719 39.0653V32.1304H19.237C15.3986 32.1304 12.3021 35.2269 12.3021 39.0653C12.3021 42.9037 15.3986 46.0002 19.237 46.0002Z" fill="#0ACF83"/>
<path d="M12.3021 25.1952C12.3021 21.3568 15.3986 18.2603 19.237 18.2603H26.1719V32.13H19.237C15.3986 32.13 12.3021 29.0335 12.3021 25.1952Z" fill="#A259FF"/>
<path d="M12.3021 11.3255C12.3021 7.48714 15.3986 4.39062 19.237 4.39062H26.1719V18.2604H19.237C15.3986 18.2604 12.3021 15.1639 12.3021 11.3255Z" fill="#F24E1E"/>
<path d="M26.1719 4.39062H33.1068C36.9452 4.39062 40.0417 7.48714 40.0417 11.3255C40.0417 15.1639 36.9452 18.2604 33.1068 18.2604H26.1719V4.39062Z" fill="#FF7262"/>
<path d="M40.0417 25.1952C40.0417 29.0335 36.9452 32.13 33.1068 32.13C29.2684 32.13 26.1719 29.0335 26.1719 25.1952C26.1719 21.3568 29.2684 18.2603 33.1068 18.2603C36.9452 18.2603 40.0417 21.3568 40.0417 25.1952Z" fill="#1ABCFE"/>
</svg>
