<svg width="50" height="50" viewBox="0 0 50 50" fill="none" xmlns="http://www.w3.org/2000/svg">
<path d="M25 4C22.2422 4 19.5115 4.54341 16.9636 5.59921C14.4158 6.65501 12.1008 8.20252 10.1508 10.1534C6.21249 14.0933 4 19.437 4 25.009C4 34.2949 10.027 42.1733 18.364 44.9675C19.414 45.1355 19.75 44.4842 19.75 43.917V40.3665C13.933 41.627 12.694 37.5513 12.694 37.5513C11.728 35.1143 10.363 34.463 10.363 34.463C8.452 33.1604 10.51 33.2024 10.51 33.2024C12.61 33.3495 13.723 35.3664 13.723 35.3664C15.55 38.5597 18.637 37.6143 19.834 37.1101C20.023 35.7445 20.569 34.8201 21.157 34.2949C16.495 33.7697 11.602 31.9629 11.602 23.9585C11.602 21.6265 12.4 19.7567 13.765 18.2651C13.555 17.7399 12.82 15.5549 13.975 12.7187C13.975 12.7187 15.739 12.1515 19.75 14.8616C21.409 14.3994 23.215 14.1683 25 14.1683C26.785 14.1683 28.591 14.3994 30.25 14.8616C34.261 12.1515 36.025 12.7187 36.025 12.7187C37.18 15.5549 36.445 17.7399 36.235 18.2651C37.6 19.7567 38.398 21.6265 38.398 23.9585C38.398 31.9839 33.484 33.7487 28.801 34.2739C29.557 34.9252 30.25 36.2067 30.25 38.1606V43.917C30.25 44.4842 30.586 45.1565 31.657 44.9675C39.994 42.1523 46 34.2949 46 25.009C46 22.25 45.4568 19.5181 44.4015 16.9692C43.3461 14.4202 41.7993 12.1042 39.8492 10.1534C37.8992 8.20252 35.5842 6.65501 33.0364 5.59921C30.4885 4.54341 27.7578 4 25 4Z" fill="black"/>
</svg>
