<svg width="50" height="50" viewBox="0 0 50 50" fill="none" xmlns="http://www.w3.org/2000/svg">
<path d="M10.5743 41.0014L7.36426 5H42.6357L39.4214 40.9957L24.9785 45L10.5743 41.0014Z" fill="#E44F26"/>
<path d="M25 41.9405L36.6714 38.7048L39.4171 7.94482H25V41.9405Z" fill="#F1662A"/>
<path d="M25 21.296H19.1571L18.7542 16.7746H25V12.3589H13.9285L14.0342 13.5446L15.1185 25.7117H25V21.296ZM25 32.7632L24.98 32.7689L20.0628 31.4417L19.7485 27.9203H15.3157L15.9342 34.8517L24.98 37.3632L25 37.3575V32.7632Z" fill="#EBEBEB"/>
<path d="M24.9839 21.296V25.7117H30.421L29.9096 31.4389L24.9839 32.7675V37.3617L34.0367 34.8517L34.1025 34.106L35.1396 22.4817L35.2482 21.296H24.9839ZM24.9839 12.3589V16.7746H35.6496L35.7382 15.7832L35.9396 13.5446L36.0453 12.3589H24.9839Z" fill="white"/>
</svg>
