<svg width="50" height="50" viewBox="0 0 50 50" fill="none" xmlns="http://www.w3.org/2000/svg">
<path d="M35.625 5H14.375C9.19733 5 5 9.19733 5 14.375V35.625C5 40.8027 9.19733 45 14.375 45H35.625C40.8027 45 45 40.8027 45 35.625V14.375C45 9.19733 40.8027 5 35.625 5Z" fill="#330000"/>
<path d="M24.3331 28.8019H18.1331L16.8664 32.7187C16.8331 32.8687 16.6998 32.9687 16.5498 32.9519H13.4164C13.2331 32.9519 13.1831 32.8519 13.2331 32.6519L18.5998 17.2019C18.6498 17.0354 18.6998 16.8519 18.7664 16.6519C18.8331 16.3019 18.8664 15.9354 18.8664 15.5687C18.8498 15.4854 18.9164 15.4019 18.9998 15.3854H23.3164C23.4498 15.3854 23.5164 15.4354 23.5331 15.5187L29.6164 32.6854C29.6664 32.8687 29.6164 32.9519 29.4498 32.9519H25.9664C25.8498 32.9687 25.7331 32.8854 25.6998 32.7687L24.3331 28.8019ZM19.0998 25.4187H23.3331C23.2331 25.0687 23.0998 24.6519 22.9498 24.2187C22.7998 23.7687 22.6498 23.2854 22.4998 22.7854C22.3331 22.2687 22.1831 21.7687 22.0164 21.2519C21.8498 20.7354 21.6998 20.2519 21.5664 19.7687C21.4331 19.3021 21.3164 18.8687 21.1998 18.4687H21.1664C21.0164 19.1854 20.8331 19.9021 20.5998 20.6187C20.3498 21.4187 20.0998 22.2519 19.8331 23.0854C19.6179 23.872 19.3733 24.6503 19.0998 25.4187ZM33.3331 18.3019C32.7831 18.3187 32.2498 18.1019 31.8498 17.7187C31.4665 17.3019 31.2665 16.7519 31.2831 16.1854C31.2665 15.6187 31.4831 15.0854 31.8831 14.7019C32.2831 14.3187 32.8165 14.1187 33.3665 14.1187C34.0165 14.1187 34.5165 14.3187 34.8831 14.7019C35.2525 15.106 35.4498 15.6382 35.4331 16.1854C35.4498 16.7519 35.2498 17.3019 34.8498 17.7187C34.4665 18.1187 33.8998 18.3354 33.3331 18.3019ZM31.4665 32.7687V19.9354C31.4665 19.7687 31.5331 19.7019 31.6831 19.7019H34.9831C35.1331 19.7019 35.1998 19.7854 35.1998 19.9354V32.7687C35.1998 32.9519 35.1331 33.0354 34.9831 33.0354H31.7165C31.5498 33.0354 31.4665 32.9354 31.4665 32.7687Z" fill="#FF9A00"/>
</svg>
