<svg width="50" height="50" viewBox="0 0 50 50" fill="none" xmlns="http://www.w3.org/2000/svg">
<g clip-path="url(#clip0_854_7749)">
<path d="M14.874 30.12L16.3936 34.7616C16.735 35.8155 16.8773 36.5512 16.8203 36.9705C17.6514 34.8751 18.232 32.5915 18.5624 30.12H20.3896C19.6039 34.1437 18.5677 37.0677 17.2814 38.8917C16.2793 40.2973 15.1814 41.0001 13.9859 41.0001C13.6672 41.0001 13.2742 40.9095 12.8079 40.7295V39.7595C13.0357 39.791 13.303 39.8078 13.6104 39.8078C14.1682 39.8078 14.6177 39.6622 14.9597 39.3718C15.3691 39.018 15.5741 38.6202 15.5741 38.1794C15.5741 37.8784 15.4143 37.2607 15.096 36.3262L12.9788 30.12H14.874ZM3.24443 27.2671L6.02764 35.2616H6.04482L8.84512 27.2671H11.133C11.634 31.2318 11.9299 34.8594 12.0207 38.1475H10.0918C10.0239 35.0738 9.83594 32.1834 9.52852 29.476H9.51172L6.57441 38.1475H5.10547L2.18594 29.476H2.16875C1.95215 32.0761 1.81582 34.9665 1.75898 38.1475H0C0.113672 34.2788 0.398145 30.6523 0.853418 27.2671H3.24443Z" fill="#00758F"/>
<path d="M34.424 27.1051C37.4179 27.1051 38.9148 28.9058 38.9148 32.5054C38.9148 34.4614 38.4646 35.939 37.5651 36.9371C37.403 37.1195 37.2238 37.2771 37.0352 37.4231L39.1538 38.4093L39.1518 38.4092L38.3995 39.6322L35.6404 38.1166C35.1831 38.2441 34.6799 38.3078 34.1315 38.3078C32.6615 38.3078 31.5635 37.9045 30.8375 37.0988C30.0406 36.2076 29.6424 34.8045 29.6424 32.8921C29.6424 30.947 30.0918 29.4751 30.9916 28.4757C31.8111 27.5614 32.9555 27.1051 34.424 27.1051ZM25.2561 27.1208C26.3261 27.1208 27.299 27.3904 28.1754 27.9275L27.7303 28.8613C26.9804 28.5613 26.241 28.4106 25.5119 28.4106C24.9203 28.4106 24.4645 28.5446 24.1467 28.8144C23.8271 29.0817 23.6295 29.4258 23.6295 29.8452C23.6295 30.4896 24.1172 31.0485 25.0177 31.5207C25.3127 31.6725 25.6067 31.8261 25.8996 31.9814L25.9668 32.017L26.0005 32.0348L26.0678 32.0704L26.1014 32.0883L26.1686 32.1239C26.8502 32.4857 27.4916 32.831 27.4916 32.831C28.392 33.4327 28.8408 34.0743 28.8408 35.1309C28.8408 36.0537 28.4816 36.8112 27.7656 37.4039C27.0491 37.9939 26.0865 38.2898 24.8811 38.2898C23.7536 38.2898 22.6609 37.9493 21.6025 37.2739L22.0977 36.3392C23.0085 36.7691 23.8327 36.9837 24.5729 36.9837C25.267 36.9837 25.8104 36.8378 26.2034 36.5497C26.5957 36.2594 26.8308 35.8546 26.8308 35.3414C26.8308 34.6953 26.3534 34.1431 25.4777 33.6798C25.2036 33.5372 24.9304 33.3933 24.6579 33.2479L24.5908 33.2122C24.4676 33.1466 24.3435 33.0803 24.2219 33.0153L24.156 32.98C23.5646 32.6633 23.0534 32.3867 23.0534 32.3867C22.178 31.7838 21.7391 31.1371 21.7391 30.0713C21.7391 29.1899 22.0664 28.4775 22.7201 27.9355C23.3754 27.3924 24.2208 27.1208 25.2561 27.1208ZM42.4333 27.2664V36.8084H46.0698V38.1468H40.589V27.2665L42.4333 27.2664ZM48.0905 36.8125V37.0387H47.6907V38.1456H47.3851V37.0387H46.9697V36.8125H48.0905ZM48.8288 36.8125L49.2127 37.7212L49.5653 36.8125H49.9986V38.1456H49.7105V37.1311L49.3092 38.1456H49.1015L48.6994 37.1311H48.684V38.1456H48.4114V36.8125H48.8288ZM34.2357 28.4431C32.4715 28.4431 31.5889 29.8139 31.5889 32.5536C31.5889 34.123 31.8228 35.261 32.2896 35.9703C32.7221 36.6267 33.3993 36.9543 34.3215 36.9543C36.0857 36.9543 36.9683 35.5729 36.9683 32.8112C36.9683 31.2639 36.7344 30.1356 36.2681 29.4259C35.8352 28.771 35.1582 28.4431 34.2358 28.4431" fill="#F29111"/>
<path d="M29.6113 9.62194C30.1966 8.26807 32.243 9.29335 33.0371 9.76628C33.2318 9.8846 33.455 10.1346 33.6781 10.227C34.0263 10.2398 34.3741 10.2655 34.7229 10.2792C35.377 10.4239 35.9897 10.5421 36.5051 10.8185C38.9004 12.1465 40.4597 13.4998 41.8947 15.7352C42.2014 16.2087 42.3546 16.7211 42.6051 17.2334C42.9528 17.9971 43.3434 18.7988 43.7469 19.521C43.9276 19.8634 44.0673 20.2441 44.3182 20.5332C44.4161 20.6654 44.6944 20.7044 44.8607 20.7834C45.3204 21.0074 45.8775 21.1775 46.3099 21.4405C47.1174 21.9145 47.8982 22.4794 48.6079 23.0576C48.8725 23.2809 49.0528 23.5969 49.3048 23.8329V23.9521C49.0811 24.0167 48.8581 24.0829 48.635 24.136C48.1476 24.2538 47.7158 24.2272 47.243 24.3451C46.9508 24.4249 46.588 24.5302 46.2816 24.557L46.3099 24.5838C46.4902 25.0688 47.4655 25.4632 47.9116 25.7532C48.4534 26.1214 48.9555 26.5678 49.3596 27.0805C49.4991 27.2114 49.6387 27.3304 49.7776 27.4609C49.8746 27.5931 49.902 27.7641 50.0002 27.882V27.9219C49.8914 27.8857 49.8132 27.8168 49.7391 27.7447L49.6948 27.7012C49.6506 27.658 49.606 27.6155 49.5551 27.5805C49.2477 27.3828 48.9424 27.1464 48.635 26.9626C48.1065 26.6469 47.4935 26.4636 46.9508 26.1467C46.644 25.9628 46.3515 25.7532 46.059 25.5427C45.7939 25.3582 45.5019 25.0039 45.3353 24.7409C45.2371 24.5957 45.2237 24.4249 45.1115 24.3198C45.1316 24.1443 45.3024 24.0922 45.4747 24.0494L45.5144 24.0395C45.5738 24.025 45.632 24.0105 45.6828 23.9913C46.4069 23.7018 47.27 23.5969 48.3847 23.6231C48.3427 23.3597 47.6462 23.0313 47.4238 22.8736C46.9776 22.5707 46.505 22.2548 46.0316 21.9791C45.7807 21.8348 45.3484 21.7294 45.0704 21.6115C44.6944 21.4668 43.8585 21.3221 43.6501 21.0465C43.2961 20.612 43.0418 20.0938 42.7949 19.5703L42.7278 19.4274C42.7053 19.3798 42.6829 19.3322 42.6604 19.2846C42.3686 18.6542 42.0061 17.997 41.7136 17.3515C41.5607 17.0366 41.4904 16.7602 41.323 16.4582C40.3067 14.6049 38.8025 13.0533 36.9787 11.9621C36.3794 11.607 35.7112 11.2785 34.9735 11.0551C34.5554 10.9363 34.0536 11.002 33.6082 10.9108H33.3151C33.0649 10.8444 32.856 10.5947 32.6608 10.4631C32.2296 10.1874 31.7978 10.0024 31.2821 9.80572C31.1015 9.72684 30.5856 9.54315 30.4055 9.68776C30.294 9.71415 30.2374 9.75377 30.21 9.85913C30.099 10.0163 30.1966 10.2532 30.2656 10.3982C30.4748 10.8183 30.767 11.068 31.0322 11.4231C31.2682 11.738 31.5612 12.093 31.7285 12.4354C32.0895 13.1714 32.2575 13.9867 32.592 14.7226C32.716 14.9993 32.9122 15.3142 33.0928 15.5638C33.2458 15.762 33.524 15.9052 33.6082 16.156C33.776 16.4189 33.357 17.2866 33.2601 17.5621C32.8973 18.6402 32.9676 20.1389 33.3854 21.0735L33.4076 21.1227L33.4299 21.1727C33.5824 21.5149 33.7457 21.8835 34.1513 21.9792C34.1792 21.9531 34.1513 21.9668 34.2067 21.9531C34.3048 21.2297 34.3324 20.5331 34.5973 19.9672C34.7503 19.6133 35.0559 19.3631 35.2653 19.0743C35.405 19.153 35.405 19.3903 35.4882 19.5473C35.6695 19.9546 35.8641 20.4011 36.0875 20.8096C36.5461 21.6508 37.0621 22.4664 37.6468 23.2023C37.8426 23.4651 38.1204 23.7544 38.371 23.9912C38.4826 24.0828 38.6076 24.1358 38.6915 24.2537H38.7189V24.2935C38.3011 24.1485 38.0362 23.7416 37.703 23.504C37.0757 23.0575 36.3244 22.3869 35.892 21.7434C35.7112 21.374 35.5156 21.0199 35.3207 20.6524V20.6258C35.2374 20.7308 35.2653 20.8351 35.2236 20.9939C35.0428 21.6508 35.182 22.4002 34.5554 22.6365C33.845 22.9132 33.3152 22.1899 33.0928 21.8613C32.3822 20.7703 32.1876 18.9299 32.6887 17.4443C32.8 17.1155 32.8152 16.7211 33.0095 16.4585C32.9675 16.2211 32.7732 16.1562 32.6608 16.0107C32.4658 15.7621 32.2989 15.4725 32.1463 15.1965C31.8531 14.6572 31.6445 14.0128 31.422 13.4344C31.3241 13.1982 31.2961 12.9611 31.1986 12.7375C31.0321 12.3962 30.7254 12.0539 30.4888 11.7519C30.1684 11.318 29.2352 10.477 29.6113 9.62194ZM34.1789 12.1976C34.2161 12.2327 34.2611 12.2634 34.3075 12.2936L34.3636 12.3299C34.4383 12.3786 34.5107 12.4299 34.555 12.4998C34.6253 12.5922 34.6384 12.6835 34.7226 12.7762C34.7226 13.0922 34.6253 13.3023 34.4289 13.4332C34.4289 13.4332 34.4155 13.447 34.4018 13.4599C34.2904 13.2492 34.1929 13.0397 34.0808 12.8293C33.9427 12.6456 33.7475 12.4998 33.635 12.29H33.6079V12.2636C33.776 12.2245 33.9427 12.1976 34.1789 12.1976Z" fill="#00758F"/>
</g>
<defs>
<clipPath id="clip0_854_7749">
<rect width="50" height="50" fill="white"/>
</clipPath>
</defs>
</svg>
