<svg width="50" height="50" viewBox="0 0 50 50" fill="none" xmlns="http://www.w3.org/2000/svg">
<path d="M12.0834 5.50049H37.9166C41.8334 5.50049 45 8.66705 45 12.5839V37.4171C45 41.3339 41.8334 44.5005 37.9166 44.5005H12.0834C8.16656 44.5005 5 41.3339 5 37.4171V12.5839C5 8.66705 8.16656 5.50049 12.0834 5.50049Z" fill="#001E36"/>
<path d="M19.3336 15.417C18.8336 15.417 18.3336 15.417 17.8171 15.4339C17.3002 15.4504 16.8167 15.4504 16.3667 15.4673C15.9167 15.4839 15.5002 15.4839 15.1002 15.5004C14.7167 15.517 14.4502 15.517 14.1667 15.517C14.0502 15.517 14.0002 15.5836 14.0002 15.7004V32.8504C14.0002 33.0004 14.0667 33.0673 14.2002 33.0673H17.4336C17.5502 33.0504 17.6336 32.9504 17.6167 32.8339V27.4839C17.9333 27.4839 18.1667 27.4839 18.3336 27.5004C18.5002 27.517 18.7667 27.517 19.1667 27.517C20.5336 27.517 21.7836 27.367 22.9167 26.9504C24.0002 26.5504 24.9336 25.8504 25.6002 24.917C26.2668 23.9837 26.6002 22.8003 26.6002 21.367C26.6002 20.617 26.4671 19.9004 26.2171 19.2004C25.9522 18.4873 25.5372 17.8393 25.0002 17.3004C24.3664 16.6847 23.6034 16.2178 22.7667 15.9336C21.8333 15.5836 20.7002 15.417 19.3336 15.417ZM19.7055 18.6998C20.2992 18.7111 20.8774 18.8148 21.4167 19.0336C21.9002 19.217 22.3002 19.5504 22.5836 19.9836C22.8494 20.4318 22.9824 20.9464 22.9671 21.4673C22.9671 22.2004 22.8002 22.7673 22.4502 23.1839C22.0833 23.6004 21.6167 23.9173 21.0836 24.0673C20.4667 24.2673 19.8167 24.367 19.1667 24.367H18.2833C18.0833 24.367 17.8671 24.3504 17.6336 24.3339V18.7339C17.7502 18.717 17.9836 18.7004 18.3171 18.7173C18.6336 18.7004 19.0167 18.7004 19.4502 18.7004C19.5356 18.6983 19.6207 18.6981 19.7055 18.6998ZM33.6836 19.5507C32.5002 19.5507 31.5167 19.7339 30.7336 20.1339C30.0171 20.4673 29.4002 21.0004 28.9836 21.667C28.6171 22.2839 28.4167 22.967 28.4167 23.6839C28.4025 24.2735 28.5342 24.8575 28.8002 25.3839C29.1119 25.9444 29.5447 26.4283 30.0671 26.8004C30.8002 27.3019 31.5958 27.7053 32.4336 28.0004C33.2502 28.317 33.8002 28.567 34.0671 28.7836C34.3336 29.0004 34.4671 29.217 34.4671 29.4504C34.4671 29.7504 34.2836 30.0339 34.0171 30.1504C33.7171 30.3004 33.2671 30.3839 32.6336 30.3839C31.9671 30.3839 31.3002 30.3004 30.6667 30.1339C29.9394 29.9714 29.2421 29.6959 28.6002 29.3173C28.5502 29.2839 28.5002 29.2673 28.4502 29.3007C28.4002 29.3339 28.3836 29.4004 28.3836 29.4504V32.3504C28.3671 32.4839 28.4502 32.6004 28.5671 32.667C29.1075 32.9195 29.6792 33.0989 30.2671 33.2004C31.0171 33.3504 31.7667 33.417 32.5333 33.417C33.7333 33.417 34.7336 33.2339 35.5502 32.8839C36.3002 32.5839 36.9502 32.0673 37.4167 31.4004C37.8537 30.7448 38.0805 29.9716 38.0667 29.1839C38.0832 28.5888 37.9515 27.9989 37.6836 27.4673C37.3667 26.9004 36.9167 26.4339 36.3667 26.0839C35.5621 25.5786 34.7006 25.1701 33.8002 24.867C33.3981 24.7006 33.0032 24.5171 32.6167 24.317C32.4002 24.2004 32.2002 24.0504 32.0502 23.867C31.9502 23.7336 31.8836 23.5839 31.8836 23.4339C31.8836 23.2839 31.9336 23.1173 32.0167 22.9839C32.1336 22.8173 32.3167 22.7004 32.5333 22.6504C32.8502 22.5673 33.2002 22.517 33.5333 22.5336C34.1667 22.5336 34.7833 22.617 35.4002 22.7504C35.9671 22.867 36.5002 23.0504 37.0002 23.3173C37.0667 23.3504 37.1502 23.3504 37.3002 23.3173C37.3262 23.298 37.3474 23.2728 37.3619 23.2438C37.3763 23.2148 37.3838 23.1828 37.3836 23.1504V20.4339C37.3836 20.367 37.3667 20.3004 37.3502 20.2339C37.3167 20.1673 37.2502 20.1004 37.1836 20.0839C36.7239 19.896 36.2423 19.7671 35.7502 19.7004C35.0658 19.6008 34.3752 19.551 33.6836 19.5507Z" fill="#31A8FF"/>
</svg>
