<svg width="50" height="50" viewBox="0 0 50 50" fill="none" xmlns="http://www.w3.org/2000/svg">
<path d="M11.3812 4C13.9375 8.30883 15.6187 13.6647 16 19.5749C16.2955 23.9575 15.8188 28.365 14.6 32.5186C15.3676 31.4374 16.3102 30.5485 17.3724 29.9042C18.4346 29.2598 19.595 28.873 20.7854 28.7666L21.0937 28.7468C21.2604 27.5372 22.0729 20.2474 19.0583 12.29C16.8333 6.41186 12.8083 4.50504 11.3812 4ZM15.0833 4.09115C15.0833 4.09115 20.0958 6.71735 22.0125 17.7567C23.2771 25.0367 22.1146 29.6707 21.175 31.9791C23.733 29.1131 27.0486 27.3781 30.5625 27.0667C32.3542 26.9065 34.0937 27.1159 35.7333 27.6407C35.525 25.8152 34.4979 19.23 30.0417 13.0562C23.2437 3.63785 15.0833 4.09115 15.0833 4.09115ZM45.9521 27.9905L8.61875 35.502C9.58665 35.8965 10.4209 36.6502 10.9971 37.6508C11.5734 38.6515 11.8609 39.8455 11.8167 41.055C11.8007 41.5654 11.7264 42.0709 11.5958 42.5578C11.7104 42.4913 17.1979 39.4167 24.8083 37.5468C31.5542 35.8888 36.7313 36.6599 37.9021 36.8743C38.6384 34.8061 39.7363 32.9454 41.1236 31.4143C42.511 29.8833 44.1565 28.7165 45.9521 27.9905ZM33.0083 38.0371C28.1792 38.0371 23.3396 39.2566 19.2292 40.9096C13.2542 43.3141 13.0812 44.2306 7.66667 43.4792C3.84167 42.9495 0 40.7323 0 40.7323C0 40.7323 5.0125 45.5855 10.2375 45.9723C14.375 46.2803 17.5396 43.9473 21.3104 42.4888C26.8542 40.343 30.7083 40.0991 34.3375 40.0868C40.3354 40.0671 50 43.1146 50 43.1146C50 43.1146 45.6042 40.5426 39.5146 38.8772C37.3793 38.3102 35.1968 38.0268 33.0083 38.0371Z" fill="black"/>
</svg>
