<svg width="50" height="50" viewBox="0 0 50 50" fill="none" xmlns="http://www.w3.org/2000/svg">
<path d="M40.8294 12.7744C34.078 4.03161 21.5166 2.41765 12.7735 9.17032C4.03178 15.923 2.41942 28.4844 9.1721 37.2262C15.9261 45.9676 28.4884 47.579 37.2289 40.825C45.9671 34.0724 47.5798 21.5148 40.8294 12.7744Z" fill="#F37036"/>
<path d="M33.727 12.1619C33.0384 12.217 32.3855 12.491 31.8639 12.9438C31.2534 13.474 30.8638 14.2137 30.7719 15.017C30.6801 15.8203 30.8926 16.6289 31.3676 17.2832C31.8422 17.9377 32.5447 18.3906 33.3368 18.5525C34.1288 18.7145 34.9527 18.5738 35.6461 18.1582H35.6468L35.6971 18.2085C35.9254 18.0776 36.1379 17.9208 36.3303 17.7412C36.9239 17.1134 37.2504 16.2796 37.2411 15.4156C37.2317 14.5517 36.8871 13.7252 36.2801 13.1104V13.1098L33.4298 15.9422L33.3796 15.8923L36.2298 13.0585C35.8998 12.7404 35.5061 12.4961 35.0746 12.3416C34.6432 12.1872 34.1838 12.1262 33.727 12.1626V12.1619ZM29.9744 16.7985C28.6079 16.7963 26.3768 18.3451 20.929 23.7929L20.9561 23.8206C20.9264 23.8103 20.8965 23.8094 20.8965 23.8094L18.8455 25.8423C18.7928 25.8924 18.758 25.9583 18.7462 26.03C18.7345 26.1018 18.7465 26.1754 18.7804 26.2397C18.8143 26.3039 18.8683 26.3554 18.9342 26.3862C19 26.4169 19.0741 26.4253 19.1452 26.4101L22.6626 25.6599C22.6782 25.6454 22.6886 25.6261 22.6922 25.6051L22.7702 25.6857L21.5713 26.8749H21.5133L14.3955 34.0487L16.6792 36.248C16.7429 36.3057 16.8235 36.3415 16.9091 36.3502C16.9947 36.3588 17.0808 36.3398 17.1548 36.296C17.2295 36.2526 17.2893 36.1876 17.3263 36.1096C17.3634 36.0316 17.3761 35.9443 17.3627 35.859L17.0291 34.4087C17.0082 34.3796 16.9969 34.3447 16.9969 34.3088C16.9969 34.273 17.0082 34.238 17.0291 34.2089C20.1469 32.7226 23.0462 30.816 25.6462 28.5423L24.1847 27.0801L24.2124 27.0756L23.3455 26.209L23.4009 26.153L23.4595 26.2129L23.4293 26.2422L25.7293 28.5926V28.5916C30.1381 24.4168 33.2674 21.061 32.4537 18.8025C32.4166 18.5324 32.2911 18.2822 32.0969 18.0909V18.0922C32.0474 18.0556 31.9954 18.0227 31.9412 17.9935C31.9145 17.9652 31.891 17.9362 31.8626 17.9085L31.8413 17.9297C31.7814 17.8935 31.7187 17.8623 31.6538 17.8363L31.7469 17.7422C31.1681 17.2265 30.6898 16.7998 29.9744 16.7979V16.7985ZM14.3459 34.0916L12.6794 35.7584V35.7597C12.6196 35.7968 12.5731 35.8518 12.5466 35.917C12.5202 35.9821 12.5151 36.054 12.5321 36.1223C12.5485 36.1905 12.5861 36.2518 12.6394 36.2974C12.6926 36.3431 12.759 36.3708 12.8289 36.3766L16.9128 36.6585L14.3459 34.0916Z" fill="white"/>
<path d="M34.0075 11.8862C33.0722 11.8852 32.174 12.2521 31.507 12.9079C31.0325 13.3936 30.7076 14.0054 30.571 14.6706C30.4345 15.3357 30.492 16.0261 30.7367 16.6595C29.2088 16.0053 27.1417 17.1461 20.712 23.5746C20.7075 23.5845 20.7035 23.5946 20.7 23.6049C20.6868 23.6107 20.674 23.6173 20.6617 23.6249L18.6284 25.6758C18.531 25.7715 18.467 25.896 18.4459 26.0309C18.4248 26.1659 18.4478 26.304 18.5114 26.4248C18.5682 26.5204 18.6486 26.5999 18.745 26.6554C18.8413 26.7109 18.9504 26.7407 19.0616 26.7419L19.1624 26.6765L21.8773 26.0974L20.5785 27.4081C20.5712 27.4254 20.5654 27.4433 20.5611 27.4616L14.1962 33.8423C14.1708 33.8637 14.1498 33.8897 14.1343 33.919L12.4952 35.5594C12.4136 35.6457 12.3578 35.7532 12.3342 35.8695C12.3107 35.9859 12.3202 36.1066 12.3617 36.2178C12.4046 36.3283 12.4772 36.4248 12.5713 36.4967C12.6655 36.5686 12.7776 36.6132 12.8954 36.6255L16.9619 36.9091C17.0314 36.885 17.0906 36.8378 17.1295 36.7754C17.1643 36.7267 17.183 36.6684 17.183 36.6086C17.183 36.5488 17.1643 36.4905 17.1295 36.4418L17.1211 36.4338C17.2091 36.388 17.2865 36.3244 17.3483 36.2468C17.4136 36.1621 17.4592 36.0638 17.4818 35.9593C17.5044 35.8547 17.5035 35.7464 17.4792 35.6423L17.1621 34.2929C20.2045 32.839 23.0552 31.0137 25.6489 28.859C25.6739 28.8736 25.7008 28.8847 25.7288 28.8922C25.8107 28.886 25.8874 28.8509 25.9454 28.7929C30.3123 24.6581 32.8792 21.8246 32.8792 19.5751C32.8889 19.2631 32.8418 18.9519 32.7403 18.6566C33.1339 18.8195 33.5537 18.9101 33.9795 18.9241L33.9746 18.9254C34.5611 18.9077 35.1345 18.7473 35.645 18.4581L35.6463 18.4584C35.7124 18.4781 35.7835 18.4717 35.8451 18.4407C36.0915 18.2956 36.3161 18.1164 36.5122 17.9083C36.8446 17.5822 37.1087 17.1932 37.289 16.7639C37.4692 16.3346 37.5621 15.8737 37.5622 15.4081C37.5622 14.9425 37.4693 14.4816 37.2891 14.0523C37.1089 13.623 36.8449 13.2339 36.5126 12.9079C36.5006 12.8971 36.4879 12.8873 36.4745 12.8785C35.811 12.2417 34.9269 11.8862 34.0072 11.8866L34.0075 11.8862ZM33.9795 12.4573C34.6307 12.4612 35.2629 12.6778 35.7797 13.0741L33.1796 15.6901C33.1708 15.7001 33.1626 15.7106 33.1551 15.7217C33.1082 15.7691 33.0807 15.8323 33.0781 15.8989C33.078 15.9392 33.0871 15.9789 33.1045 16.0152C33.122 16.0515 33.1474 16.0833 33.1789 16.1084H33.1796L35.1455 18.0743C34.6074 18.3091 34.0109 18.3759 33.4342 18.2659C32.8575 18.1559 32.3275 17.8742 31.9137 17.4578C31.0803 16.6198 30.8386 15.3617 31.2843 14.2701C31.73 13.1776 32.7925 12.4638 33.9795 12.4573ZM36.2741 13.5634C36.6992 14.0777 36.931 14.7246 36.9293 15.392C36.9281 16.1737 36.6165 16.9231 36.063 17.4752C35.952 17.5796 35.8338 17.6759 35.7091 17.7636L34.1226 16.2015L33.8122 15.8912L33.8976 15.8058L36.2738 13.5627L36.2741 13.5634ZM36.1561 14.9147C36.0978 14.8963 36.0348 14.8999 35.9789 14.9247C35.9236 14.9533 35.8818 15.0026 35.8629 15.062C35.8535 15.0916 35.8501 15.1227 35.8529 15.1536C35.8557 15.1846 35.8645 15.2146 35.879 15.2421C35.9361 15.3625 35.9586 15.4965 35.944 15.629C35.9294 15.7615 35.8782 15.8873 35.7961 15.9924C35.7751 16.0126 35.7587 16.0371 35.7478 16.0643C35.737 16.0914 35.732 16.1205 35.7333 16.1496C35.7346 16.2089 35.7559 16.2657 35.7961 16.3082C35.8391 16.3246 35.8866 16.3246 35.9296 16.3082C35.9683 16.3179 36.009 16.3168 36.0471 16.305C36.0853 16.2933 36.1195 16.2713 36.1461 16.2415C36.2834 16.0734 36.3703 15.8699 36.3968 15.6545C36.4233 15.4391 36.3884 15.2206 36.296 15.0242V15.0255C36.2645 14.9727 36.2147 14.9333 36.1561 14.9147ZM29.9436 17.0813C30.3325 17.0946 30.7066 17.2332 31.0103 17.4765C30.6833 17.5236 30.3803 17.6751 30.1463 17.9083L22.7961 25.2256L21.3536 23.7831C25.1655 19.9892 27.4962 18.0076 28.9452 17.3582C29.2437 17.1702 29.5908 17.0742 29.9436 17.0813ZM31.2214 18.0353C31.4682 18.0355 31.7049 18.1332 31.8798 18.3073C31.9727 18.3947 32.0459 18.5009 32.0948 18.6187C32.1436 18.7365 32.1669 18.8633 32.1631 18.9908C32.1589 19.1179 32.1285 19.2427 32.0739 19.3575C32.0193 19.4722 31.9416 19.5745 31.8457 19.6579L24.0304 26.4599L23.187 25.6165L30.563 18.3073C30.738 18.1334 30.9747 18.0354 31.2214 18.0353ZM32.1863 20.1939C31.6417 22.3538 28.755 25.2804 25.745 28.1242L24.5277 26.9082L32.1863 20.1939ZM20.9285 24.2091L21.0168 24.2962L22.149 25.4283L19.0455 26.0922L20.9285 24.2091ZM22.7955 26.0912L22.7968 26.0925L23.1732 26.4777L23.179 26.5047L23.2041 26.5086L23.284 26.5905L23.5483 26.8612L21.8129 27.0739L22.7955 26.0912ZM24.0417 27.4048L25.1948 28.5573C22.6451 30.6775 19.847 32.48 16.8624 33.9252C16.7654 33.9713 16.6875 34.0496 16.6419 34.1467C16.5962 34.2439 16.5856 34.3538 16.6119 34.4579L16.9455 35.9081C16.9578 35.9252 16.9644 35.9456 16.9644 35.9666C16.9644 35.9876 16.9578 36.0081 16.9455 36.0251C16.9272 36.0416 16.9034 36.0507 16.8788 36.0507C16.8542 36.0507 16.8304 36.0416 16.8121 36.0251L14.8455 34.0425L20.9069 27.8921L24.0417 27.4048ZM14.395 34.4756L14.6751 34.7379L16.1227 36.1856L12.8948 35.9768L14.395 34.4756Z" fill="#F37036"/>
</svg>
