<svg width="50" height="50" viewBox="0 0 50 50" fill="none" xmlns="http://www.w3.org/2000/svg">
<mask id="mask0_854_7756" style="mask-type:luminance" maskUnits="userSpaceOnUse" x="5" y="5" width="40" height="40">
<path d="M35.625 5H14.375C9.19733 5 5 9.19733 5 14.375V35.625C5 40.8027 9.19733 45 14.375 45H35.625C40.8027 45 45 40.8027 45 35.625V14.375C45 9.19733 40.8027 5 35.625 5Z" fill="white"/>
</mask>
<g mask="url(#mask0_854_7756)">
<path d="M14.375 5C9.19734 5 5 9.19734 5 14.375V35.625C5 40.8027 9.19734 45 14.375 45H31.3219C31.0439 44.1808 30.8262 42.8834 30.7037 41.4027C30.5983 40.1289 30.5633 38.7197 30.6217 37.3605C30.6059 37.1595 30.5964 37.0289 30.5964 37.0289C30.5964 37.0289 30.3036 35.0586 29.8822 33.44C29.6956 32.7216 29.4833 32.0719 29.2603 31.6953C29.1455 31.5011 29.2728 30.703 29.5933 29.5209C29.7808 29.8445 30.5719 31.2291 30.7308 31.6753C30.9097 32.1797 30.9472 32.3242 30.9472 32.3242C30.9472 32.3242 30.5133 30.0942 29.8014 28.793C29.9748 28.2131 30.1593 27.6367 30.3548 27.0639C30.6014 27.4962 31.1619 28.4891 31.3644 28.9595C31.3831 29.0031 31.4 29.0441 31.4123 29.0778C31.4411 29.1594 31.4653 29.2286 31.487 29.292C31.6012 29.623 31.6291 29.7283 31.6291 29.7283C31.6291 29.7283 31.5867 29.5117 31.508 29.1777C31.4747 29.0366 31.4333 28.8706 31.3872 28.6939C31.2078 28.005 30.9353 27.1031 30.5864 26.3964C31.482 21.7411 34.3647 15.6453 37.4703 12.3545C37.738 12.0711 38.0069 11.8059 38.2763 11.5669C40.0917 9.9575 41.9312 9.41375 43.4505 10.7672C44.5495 11.7464 44.9992 13.0992 45 14.6562V14.375C45 9.19734 40.8027 5 35.625 5H14.375Z" fill="#D9D9D9"/>
<path d="M14.375 5C9.19734 5 5 9.19734 5 14.375V35.625C5 40.8027 9.19734 45 14.375 45H31.3219C31.0439 44.1808 30.8262 42.8834 30.7037 41.4027C30.5983 40.1289 30.5633 38.7197 30.6217 37.3605C30.6059 37.1595 30.5964 37.0289 30.5964 37.0289C30.5964 37.0289 30.3036 35.0586 29.8822 33.44C29.6956 32.7216 29.4833 32.0719 29.2603 31.6953C29.1455 31.5011 29.2728 30.703 29.5933 29.5209C29.7808 29.8445 30.5719 31.2291 30.7308 31.6753C30.9097 32.1797 30.9472 32.3242 30.9472 32.3242C30.9472 32.3242 30.5133 30.0942 29.8014 28.793C29.9748 28.2131 30.1593 27.6367 30.3548 27.0639C30.6014 27.4962 31.1619 28.4891 31.3644 28.9595C31.3831 29.0031 31.4 29.0441 31.4123 29.0778C31.4411 29.1594 31.4653 29.2286 31.487 29.292C31.6012 29.623 31.6291 29.7283 31.6291 29.7283C31.6291 29.7283 31.5867 29.5117 31.508 29.1777C31.4747 29.0366 31.4333 28.8706 31.3872 28.6939C31.2078 28.005 30.9353 27.1031 30.5864 26.3964C31.482 21.7411 34.3647 15.6453 37.4703 12.3545C37.738 12.0711 38.0069 11.8059 38.2763 11.5669C40.0917 9.9575 41.9312 9.41375 43.4505 10.7672C44.5495 11.7464 44.9992 13.0992 45 14.6562V14.375C45 9.19734 40.8027 5 35.625 5H14.375Z" fill="url(#paint0_linear_854_7756)"/>
<path d="M43.4505 10.7672C41.9312 9.41377 40.0917 9.95736 38.2763 11.5669C38.0069 11.806 37.738 12.0711 37.4703 12.3544C34.3647 15.6455 31.482 21.7411 30.5864 26.3964C30.9353 27.1031 31.2078 28.005 31.3872 28.6939C31.4333 28.8706 31.4747 29.0366 31.508 29.1777C31.5867 29.5117 31.6291 29.7283 31.6291 29.7283C31.6291 29.7283 31.6012 29.623 31.487 29.292C31.4653 29.2286 31.4411 29.1594 31.4123 29.0778C31.3974 29.038 31.3814 28.9985 31.3644 28.9596C31.1619 28.4891 30.6014 27.4963 30.3548 27.0639C30.1593 27.6367 29.9748 28.2132 29.8014 28.793C30.5133 30.0942 30.9472 32.3242 30.9472 32.3242C30.9472 32.3242 30.9097 32.1797 30.7308 31.6753C30.5719 31.2291 29.7808 29.8446 29.5933 29.521C29.2728 30.703 29.1455 31.5011 29.2603 31.6953C29.4833 32.0719 29.6956 32.7216 29.8822 33.44C30.3036 35.0586 30.5964 37.0289 30.5964 37.0289C30.5964 37.0289 30.6059 37.1595 30.6217 37.3605C30.5633 38.7197 30.5983 40.1289 30.7037 41.4027C30.8433 43.0888 31.1061 44.5374 31.4411 45.3125L31.6684 45.1886C31.1766 43.6614 30.9767 41.6599 31.0642 39.3514C31.1966 35.8231 32.0095 31.5681 33.5114 27.1333C36.0489 20.4385 39.5695 15.0671 42.7917 12.5017C39.8548 15.1511 35.88 23.7266 34.6902 26.9022C33.358 30.4583 32.4138 33.7955 31.8448 36.9927C32.8266 33.9953 36.0008 32.7069 36.0008 32.7069C36.0008 32.7069 37.5577 30.7891 39.377 28.0491C38.2872 28.2974 36.4977 28.7224 35.8981 28.9739C35.0141 29.3444 34.7758 29.4708 34.7758 29.4708C34.7758 29.4708 37.6398 27.7286 40.097 26.9399C43.4764 21.6235 47.158 14.0708 43.4505 10.7672ZM9.45625 12.6563C8.97766 12.6563 8.58844 12.7961 8.29016 13.0755C7.99172 13.3552 7.84047 13.7219 7.84047 14.1711C7.84047 14.4039 7.87797 14.6161 7.95203 14.8106C8.02609 15.0055 8.14141 15.1861 8.29625 15.3492C8.45125 15.5125 8.76141 15.7344 9.22375 16.0164C9.79094 16.358 10.162 16.6352 10.3402 16.8517C10.5184 17.0681 10.6069 17.2949 10.6069 17.5311C10.6069 17.8477 10.5014 18.1002 10.2844 18.2902C10.067 18.48 9.77641 18.5745 9.41594 18.5745C9.03578 18.5745 8.70469 18.4425 8.42031 18.1799C8.13594 17.917 7.9925 17.5692 7.98922 17.1333H7.8125V18.7156H7.98922C8.04328 18.5658 8.11797 18.4891 8.21578 18.4891C8.26266 18.4891 8.37281 18.5211 8.54453 18.581C8.96187 18.7275 9.30469 18.7981 9.57422 18.7981C10.0384 18.7981 10.4348 18.6378 10.7652 18.3116C11.0948 17.9856 11.2614 17.5925 11.2614 17.1335C11.2614 16.7775 11.1514 16.4608 10.9358 16.1849C10.72 15.9085 10.3005 15.587 9.67328 15.2177C9.13391 14.898 8.78359 14.6375 8.62203 14.4344C8.46016 14.2316 8.37703 14.0074 8.37703 13.7611C8.37703 13.4949 8.47609 13.2811 8.67156 13.1216C8.86719 12.9619 9.12328 12.8828 9.44391 12.8828C9.80469 12.8828 10.1053 12.9885 10.3433 13.2011C10.5809 13.4141 10.7184 13.7092 10.7589 14.0886H10.9358V12.7177H10.7713C10.7513 12.7875 10.7327 12.8322 10.7155 12.8522C10.6989 12.8722 10.6669 12.8828 10.6194 12.8828C10.5622 12.8828 10.4602 12.8591 10.3155 12.8125C10.0053 12.7094 9.71938 12.6563 9.45625 12.6563ZM15.2344 12.6564C14.6511 12.6564 14.1217 12.792 13.6433 13.0635C13.1642 13.3344 12.785 13.7103 12.505 14.1895C12.2253 14.6686 12.0863 15.1775 12.0863 15.7197C12.0863 16.4481 12.328 17.0972 12.8152 17.666C13.3027 18.2344 13.8867 18.5886 14.5644 18.7249C14.7194 18.8045 14.9409 19.0102 15.2313 19.343C15.5583 19.7186 15.835 19.9895 16.0625 20.1508C16.2853 20.3092 16.5326 20.4302 16.7944 20.5089C17.0539 20.5869 17.3345 20.6252 17.6381 20.6252C18.0055 20.6252 18.3345 20.5622 18.6242 20.4324L18.5592 20.2733C18.3868 20.3335 18.2053 20.3635 18.0227 20.3621C17.7661 20.3621 17.507 20.2786 17.2472 20.1111C16.9878 19.9431 16.6634 19.6228 16.2764 19.1502C16.0945 18.9236 15.9691 18.7808 15.8981 18.7249C16.6395 18.5819 17.2494 18.2274 17.7248 17.6599C18.2003 17.0927 18.4381 16.4452 18.4381 15.7197C18.4381 14.8581 18.1275 14.1342 17.5108 13.5439C16.8938 12.9531 16.1347 12.6564 15.2344 12.6564ZM18.8414 12.6563L18.8508 12.843C19.2389 12.843 19.4564 12.9558 19.5052 13.1827C19.5231 13.2639 19.5316 13.4136 19.533 13.6296L19.5298 17.7577C19.5267 18.066 19.4822 18.2628 19.3966 18.3483C19.3108 18.4331 19.1659 18.4861 18.9561 18.5074L18.9467 18.6941H22.8175L22.9167 17.7577H22.74C22.6895 18.0127 22.5737 18.1955 22.3895 18.2992C22.2047 18.4039 21.8781 18.4555 21.4062 18.4555H21.0403C20.6158 18.4555 20.3702 18.3039 20.3053 17.9992C20.2922 17.9348 20.2859 17.8692 20.2866 17.8035L20.3022 13.6294C20.3022 13.3216 20.3416 13.1153 20.4231 13.0142C20.5056 12.9138 20.6544 12.8574 20.8697 12.843L20.8605 12.6563H18.8414ZM15.2964 12.8828C15.9542 12.8828 16.4912 13.1383 16.9061 13.6539C17.3208 14.1695 17.5264 14.8764 17.5264 15.7716C17.5264 16.6197 17.3178 17.2988 16.8998 17.8097C16.4819 18.3203 15.9256 18.5747 15.2342 18.5747C14.5702 18.5747 14.0317 18.3124 13.6186 17.7852C13.2056 17.258 13.0014 16.5735 13.0014 15.7317C13.0014 14.8669 13.2081 14.1744 13.6247 13.6569C14.0411 13.14 14.5986 12.8828 15.2964 12.8828ZM24.1977 13.77C24.1033 13.77 24.0313 13.8014 23.9775 13.8649C23.9223 13.928 23.9055 14.0045 23.9247 14.0975C23.9433 14.1875 23.9948 14.2666 24.0767 14.3331C24.1581 14.3995 24.2459 14.4341 24.3403 14.4341C24.4316 14.4341 24.5012 14.3995 24.5512 14.3331C24.6012 14.2666 24.6164 14.1877 24.5978 14.0975C24.5784 14.0045 24.5287 13.928 24.452 13.8649C24.3744 13.8014 24.2889 13.77 24.1977 13.77ZM26.7502 14.4035C26.5897 15.0124 26.242 15.3419 25.7081 15.395L25.7142 15.5694H26.3377L26.3253 17.6319C26.3262 17.9847 26.3372 18.2194 26.3625 18.3389C26.4239 18.6249 26.6133 18.7703 26.93 18.7703C27.3884 18.7703 27.8694 18.4949 28.3722 17.9441L28.2203 17.8156C27.8572 18.1781 27.5361 18.3603 27.2558 18.3603C27.0834 18.3603 26.9766 18.2625 26.9362 18.0697C26.9248 18.0154 26.9196 17.9599 26.9208 17.9044L26.927 15.5694H27.8791L27.8698 15.291H26.93V14.4035H26.7502ZM30.4316 15.1808C29.8991 15.1808 29.4658 15.4358 29.1291 15.9428C28.7939 16.4506 28.6902 17.0131 28.822 17.6319C28.8995 17.9944 29.0539 18.2756 29.2903 18.4736C29.5262 18.6716 29.8256 18.7705 30.1834 18.7705C30.5167 18.7705 30.9808 18.6871 31.1759 18.5194C31.3717 18.3519 31.5522 18.0803 31.7188 17.7085L31.5853 17.5708C31.3197 18.0531 30.7833 18.2961 30.3789 18.2961C29.8228 18.2961 29.4823 17.995 29.3555 17.3964C29.3383 17.3156 29.3259 17.2338 29.3181 17.1516C29.9797 17.0481 30.4809 16.8652 30.8194 16.6006C31.1573 16.3361 31.4969 16.0555 31.4334 15.7591C31.3956 15.583 31.303 15.4446 31.1605 15.3399C31.0161 15.2352 30.6411 15.1808 30.4316 15.1808ZM24.6102 15.2022L23.4627 15.4624V15.6642L23.8595 15.6153C24.0519 15.6153 24.165 15.7013 24.2008 15.8724C24.2128 15.9297 24.2203 16.01 24.2225 16.1111L24.21 17.9625C24.2069 18.2188 24.178 18.3677 24.1202 18.4124C24.0617 18.4572 23.9077 18.4795 23.658 18.4795L23.6517 18.6541H25.4723L25.4692 18.4797C25.2163 18.4797 25.0523 18.46 24.9792 18.4216C24.9073 18.3833 24.858 18.3138 24.8366 18.2074C24.82 18.1305 24.8128 17.9983 24.8117 17.8156L24.818 15.2022H24.6102ZM30.1402 15.545C30.2509 15.545 30.358 15.5872 30.4658 15.6703C30.572 15.7533 30.6369 15.8456 30.658 15.9458C30.7619 16.438 30.3195 16.7783 29.3244 16.968C29.2959 16.6091 29.3591 16.2831 29.5198 15.9886C29.6794 15.6944 29.8872 15.545 30.1402 15.545Z" fill="#003B57"/>
</g>
<defs>
<linearGradient id="paint0_linear_854_7756" x1="28.0647" y1="5.81859" x2="28.0647" y2="42.7755" gradientUnits="userSpaceOnUse">
<stop stop-color="#97D9F6"/>
<stop offset="0.92" stop-color="#0F80CC"/>
<stop offset="1" stop-color="#0F80CC"/>
</linearGradient>
</defs>
</svg>
