<svg width="50" height="50" viewBox="0 0 50 50" fill="none" xmlns="http://www.w3.org/2000/svg">
<mask id="mask0_854_7703" style="mask-type:alpha" maskUnits="userSpaceOnUse" x="1" y="1" width="48" height="47">
<path fill-rule="evenodd" clip-rule="evenodd" d="M34.6699 47.8027C35.0379 47.9461 35.4314 48.0123 35.826 47.9971C36.2207 47.9819 36.608 47.8858 36.9638 47.7145L46.4838 43.1335C46.9741 42.8975 47.3877 42.5279 47.6772 42.0672C47.9667 41.6065 48.1203 41.0734 48.1203 40.5293V9.4681C48.1204 8.92393 47.9668 8.39077 47.6773 7.93C47.3878 7.46922 46.9741 7.09954 46.4838 6.8635L36.9638 2.28324C36.4259 2.02441 35.8208 1.93919 35.2323 2.03937C34.6438 2.13956 34.101 2.4202 33.679 2.84245L15.454 19.4693L7.51597 13.4433C7.15783 13.1715 6.71588 13.0337 6.26675 13.0536C5.81762 13.0735 5.38962 13.25 5.05696 13.5524L2.51088 15.8683C2.31246 16.0488 2.1539 16.2687 2.04533 16.5139C1.93676 16.7592 1.88058 17.0244 1.88037 17.2926C1.88017 17.5608 1.93595 17.8261 2.04414 18.0715C2.15234 18.317 2.31057 18.5371 2.50871 18.7179L9.39302 24.9985L2.50907 31.2795C2.31104 31.4603 2.1529 31.6805 2.04478 31.9258C1.93665 32.1712 1.8809 32.4365 1.88111 32.7046C1.88131 32.9727 1.93746 33.2379 2.04596 33.4831C2.15446 33.7283 2.31293 33.9482 2.51124 34.1287L5.05732 36.4447C5.38994 36.7471 5.81792 36.9236 6.26705 36.9436C6.71618 36.9636 7.15815 36.8258 7.51633 36.5541L15.4544 30.5285L33.6794 47.1549C33.9614 47.4369 34.2984 47.6574 34.6699 47.8027ZM36.5672 14.5017L22.739 24.9985L36.5675 35.4957L36.5672 14.5017Z" fill="white"/>
</mask>
<g mask="url(#mask0_854_7703)">
<path d="M43.905 8.96532L35.5201 4.90704C35.0466 4.67779 34.5138 4.60225 33.9956 4.69088C33.4774 4.77951 32.9995 5.02792 32.628 5.4017L5.17921 30.5563C5.0048 30.7162 4.86551 30.9109 4.77027 31.1279C4.67502 31.345 4.62592 31.5797 4.6261 31.8169C4.62628 32.0541 4.67574 32.2887 4.77131 32.5057C4.86688 32.7226 5.00647 32.917 5.18112 33.0766L7.42311 35.1253C7.71593 35.3931 8.09283 35.5495 8.48838 35.5672C8.88393 35.5848 9.27315 35.4628 9.58848 35.2221L42.6432 10.0176C43.7521 9.17207 45.3449 9.96711 45.3449 11.3661V11.2683C45.3449 10.7871 45.2098 10.3156 44.9551 9.90818C44.7004 9.50072 44.3364 9.17411 43.905 8.96532Z" fill="#0065A9"/>
<g filter="url(#filter0_d_854_7703)">
<path d="M43.9046 41.034L35.5197 45.0917C35.0462 45.321 34.5135 45.3966 33.9953 45.3081C33.4771 45.2196 32.9991 44.9713 32.6276 44.5976L5.17879 19.4427C5.00437 19.2828 4.86509 19.0882 4.76984 18.8711C4.6746 18.654 4.62549 18.4194 4.62567 18.1821C4.62585 17.9449 4.67531 17.7103 4.77088 17.4934C4.86646 17.2765 5.00604 17.082 5.18069 16.9224L7.42268 14.8738C7.7155 14.6059 8.0924 14.4495 8.48795 14.4319C8.8835 14.4142 9.27273 14.5363 9.58805 14.7769L42.6428 39.9811C43.7517 40.827 45.3445 40.0319 45.3445 38.6329V38.7307C45.3445 39.2119 45.2094 39.6834 44.9547 40.0908C44.6999 40.4983 44.336 40.8252 43.9046 41.034Z" fill="#007ACC"/>
</g>
<g filter="url(#filter1_d_854_7703)">
<path d="M35.5198 45.0942C35.046 45.323 34.5133 45.3983 33.9951 45.3096C33.477 45.221 32.999 44.9727 32.6273 44.5992C33.5658 45.5425 35.1707 44.8744 35.1707 43.5403V6.46003C35.1707 5.12591 33.5658 4.45773 32.6273 5.40136C32.999 5.02786 33.477 4.77963 33.9951 4.69096C34.5133 4.60229 35.046 4.67756 35.5198 4.90637L43.9031 8.9589C44.3348 9.16756 44.6991 9.49451 44.954 9.90211C45.209 10.3097 45.3442 10.7814 45.3442 11.2629V38.7384C45.3442 39.2198 45.209 39.6915 44.954 40.0991C44.6991 40.5067 44.3348 40.8337 43.9031 41.0423L35.5198 45.0942Z" fill="#1F9CF0"/>
</g>
<path opacity="0.25" fill-rule="evenodd" clip-rule="evenodd" d="M33.4833 45.1718C33.807 45.2986 34.1533 45.3571 34.5006 45.3437C34.8478 45.3303 35.1886 45.2452 35.5017 45.0938L43.88 41.0416C44.3115 40.8328 44.6756 40.5058 44.9303 40.0982C45.1851 39.6906 45.3202 39.219 45.3201 38.7377V11.2621C45.3202 10.7808 45.1851 10.3092 44.9303 9.90158C44.6756 9.49399 44.3115 9.16699 43.88 8.9582L35.5017 4.90663C35.0283 4.67767 34.4958 4.60229 33.9779 4.69091C33.46 4.77953 32.9823 5.02778 32.6109 5.40129L16.5717 20.1089L9.58565 14.7788C9.27046 14.5384 8.88152 14.4165 8.48626 14.4341C8.09099 14.4517 7.71432 14.6078 7.42155 14.8753L5.18083 16.9239C5.00626 17.0836 4.86675 17.2781 4.77123 17.495C4.67571 17.712 4.62628 17.9466 4.6261 18.1838C4.62592 18.421 4.67499 18.6557 4.77019 18.8728C4.86538 19.0899 5.00459 19.2846 5.17893 19.4445L11.2376 24.9999L5.17924 30.5556C5.00487 30.7155 4.86561 30.9102 4.77039 31.1273C4.67517 31.3444 4.62608 31.5791 4.62626 31.8163C4.62644 32.0536 4.67589 32.2882 4.77144 32.5051C4.86698 32.7221 5.00653 32.9166 5.18115 33.0762L7.42187 35.1248C7.7146 35.3924 8.09125 35.5485 8.48652 35.5662C8.88178 35.5839 9.27074 35.462 9.58597 35.2217L16.5723 29.8913L32.6115 44.5988C32.8597 44.8482 33.1565 45.0433 33.4833 45.1718ZM35.153 15.7144L22.9829 24.9999L35.153 34.2851V15.7144Z" fill="url(#paint0_linear_854_7703)"/>
</g>
<defs>
<filter id="filter0_d_854_7703" x="-3.70833" y="6.09618" width="57.3868" height="47.5821" filterUnits="userSpaceOnUse" color-interpolation-filters="sRGB">
<feFlood flood-opacity="0" result="BackgroundImageFix"/>
<feColorMatrix in="SourceAlpha" type="matrix" values="0 0 0 0 0 0 0 0 0 0 0 0 0 0 0 0 0 0 127 0" result="hardAlpha"/>
<feOffset/>
<feGaussianBlur stdDeviation="4.167"/>
<feColorMatrix type="matrix" values="0 0 0 0 0 0 0 0 0 0 0 0 0 0 0 0 0 0 0.25 0"/>
<feBlend mode="overlay" in2="BackgroundImageFix" result="effect1_dropShadow_854_7703"/>
<feBlend mode="normal" in="SourceGraphic" in2="effect1_dropShadow_854_7703" result="shape"/>
</filter>
<filter id="filter1_d_854_7703" x="24.2933" y="-3.67921" width="29.3849" height="57.3589" filterUnits="userSpaceOnUse" color-interpolation-filters="sRGB">
<feFlood flood-opacity="0" result="BackgroundImageFix"/>
<feColorMatrix in="SourceAlpha" type="matrix" values="0 0 0 0 0 0 0 0 0 0 0 0 0 0 0 0 0 0 127 0" result="hardAlpha"/>
<feOffset/>
<feGaussianBlur stdDeviation="4.167"/>
<feColorMatrix type="matrix" values="0 0 0 0 0 0 0 0 0 0 0 0 0 0 0 0 0 0 0.25 0"/>
<feBlend mode="overlay" in2="BackgroundImageFix" result="effect1_dropShadow_854_7703"/>
<feBlend mode="normal" in="SourceGraphic" in2="effect1_dropShadow_854_7703" result="shape"/>
</filter>
<linearGradient id="paint0_linear_854_7703" x1="24.9731" y1="4.65418" x2="24.9731" y2="45.3456" gradientUnits="userSpaceOnUse">
<stop stop-color="white"/>
<stop offset="1" stop-color="white" stop-opacity="0"/>
</linearGradient>
</defs>
</svg>
