<svg width="50" height="51" viewBox="0 0 50 51" fill="none" xmlns="http://www.w3.org/2000/svg">
<path fill-rule="evenodd" clip-rule="evenodd" d="M24.9891 5.03986C30.1807 5.03986 35.3726 5.03986 40.5643 5.03955C41.2158 5.03955 41.8611 5.09611 42.4863 5.28674C43.8418 5.69986 44.5594 6.67188 44.8407 8.01141C44.9524 8.54265 44.9841 9.08406 44.9852 9.62546C44.9935 13.2614 44.9996 16.8976 44.9999 20.5338C45.0002 27.1563 45.001 33.7788 44.9874 40.4011C44.9855 41.3281 44.9361 42.2653 44.4785 43.1098C43.9708 44.0463 43.2758 44.7876 42.2207 45.1135C42.03 45.1724 41.831 45.2395 41.6355 45.2395C41.1852 45.2398 40.7469 45.3513 40.298 45.3513C30.1314 45.3506 19.9649 45.3565 9.79821 45.3404C8.97134 45.3388 8.13104 45.2787 7.34557 44.9423C7.18932 44.8751 7.03151 44.8188 6.89401 44.7142C5.89402 43.9521 5.21496 43.0017 5.06934 41.7156C5.01699 41.2518 5.00027 40.7906 5.00027 40.3267C5.00184 30.0217 5.00277 19.7168 5.00809 9.41187C5.00856 8.81406 5.01465 8.20594 5.19855 7.63375C5.68824 6.10923 6.75979 5.27689 8.34822 5.10783C8.71744 5.06846 9.08978 5.04299 9.46072 5.04268C14.6365 5.03846 19.813 5.03986 24.9891 5.03986Z" fill="#FB7A24"/>
<path fill-rule="evenodd" clip-rule="evenodd" d="M25.1213 30.6804C25.0077 31.3764 24.9279 32.0054 24.6779 32.5851C23.5076 35.3013 21.5129 36.9565 18.5226 37.286C14.9881 37.6754 11.7234 35.4938 10.7419 32.1057C10.3861 30.8779 10.4217 29.6262 10.5508 28.3765C10.6885 27.0412 11.0819 25.775 11.6961 24.5803C11.7841 24.4095 11.7824 24.2806 11.6724 24.1152C10.7292 22.6967 10.3633 21.1297 10.4961 19.4383C10.5672 18.5343 10.7867 17.6696 11.1966 16.8596C12.398 14.4869 15.0356 12.4734 18.5682 12.8077C21.6745 13.1015 24.5515 15.781 25.0005 18.7944C25.0232 18.9457 25.0657 19.0941 25.1154 19.3172C25.1898 18.9132 25.2435 18.5797 25.313 18.2494C25.8916 15.5118 28.5715 12.6471 32.3699 12.6116C36.2199 12.576 39.0709 15.5955 39.6089 18.3999C39.8362 19.585 39.7967 20.7691 39.6092 21.9527C39.4236 23.1302 39.0727 24.2756 38.5667 25.355C38.4548 25.5939 38.4664 25.7659 38.6097 25.9878C39.4389 27.2728 39.8048 28.6834 39.758 30.2153C39.6598 33.4117 37.3991 36.2781 34.2889 37.0277C29.9468 38.0741 26.6182 35.4773 25.498 32.3354C25.3152 31.824 25.2288 31.2901 25.1215 30.6804M33.0103 25.0648C33.0567 24.8841 33.1967 24.7758 33.2974 24.642C34.3861 23.1952 34.9588 21.5791 34.831 19.7593C34.7378 18.4311 33.6455 17.4955 32.3232 17.545C30.9999 17.5946 30.0029 18.615 29.9841 19.9391C29.9827 20.0475 29.9893 20.1561 29.9825 20.2638C29.8915 21.6749 29.1129 22.4478 27.933 22.5341C27.7176 22.5499 27.5015 22.5691 27.2857 22.5697C25.7545 22.5731 24.2234 22.5725 22.692 22.5711C22.0232 22.5705 21.3601 22.6433 20.7232 22.8399C17.7503 23.757 16.0167 25.7902 15.4426 28.8203C15.3289 29.4198 15.2265 30.042 15.4231 30.6578C15.7051 31.5411 16.2309 32.1979 17.1615 32.4176C18.1261 32.6453 18.9662 32.3934 19.6337 31.6357C20.0651 31.1459 20.2012 30.5639 20.2334 29.9251C20.3168 28.2822 21.2115 27.4609 22.7037 27.4733C24.9926 27.4923 27.2818 27.4773 29.571 27.479C29.9772 27.4792 29.981 27.4847 29.983 27.8865C29.9869 28.6287 29.9641 29.372 29.9927 30.1134C30.0393 31.3239 31.1043 32.33 32.3389 32.3654C33.6121 32.4018 34.7469 31.4601 34.8299 30.2309C34.9014 29.1668 34.8969 28.0964 34.8271 27.0316C34.773 26.2073 34.3271 25.6198 33.5714 25.2789C33.3902 25.1973 33.1996 25.1363 33.0103 25.0648ZM18.6617 22.5674C19.154 22.5674 19.5559 22.5628 19.9575 22.5694C20.1565 22.5725 20.2303 22.4869 20.2287 22.2917C20.2221 21.5194 20.262 20.7446 20.2128 19.975C20.1478 18.9599 19.6079 18.226 18.6628 17.8558C17.6937 17.4763 16.8069 17.6929 16.0569 18.4086C15.3036 19.1278 15.2031 20.0074 15.4667 20.9699C15.7089 21.8546 16.2808 22.357 17.1804 22.5089C17.7029 22.5969 18.2284 22.5547 18.6617 22.5674Z" fill="white"/>
</svg>
